<?xml version="1.0" encoding="UTF-8"?>
<svg xmlns="http://www.w3.org/2000/svg" xmlns:xlink="http://www.w3.org/1999/xlink" viewBox="0 0 30 30" width="30px" height="30px">
<g id="surface27394550">
<path style=" stroke:none;fill-rule:nonzero;fill:rgb(100%,100%,100%);fill-opacity:1;" d="M 4.65625 4 C 3.617188 6.429688 4.039062 8.460938 4.410156 9.574219 C 2.914062 11.171875 2.003906 13.375 2.003906 16.3125 C 2.003906 23.578125 6.59375 26 15.003906 26 C 23.410156 26 28 23.578125 28 16.3125 C 28.003906 13.476562 27.035156 11.265625 25.472656 9.632812 C 25.695312 9.265625 26.003906 8.546875 26.003906 7.1875 C 26.003906 5.140625 25.316406 4 25.316406 4 C 24.246094 4 21.734375 4.429688 19.65625 6.5 C 18.183594 6.132812 16.609375 6 15.003906 6 C 13.429688 6 11.886719 6.085938 10.441406 6.40625 C 10.347656 6.316406 7.761719 4 4.65625 4 Z M 10.003906 13.5 C 11.308594 13.515625 13.457031 14 15.003906 14 C 16.550781 14 18.695312 13.515625 20 13.5 C 22.523438 13.5 24 15.503906 24 17.972656 C 24 22.023438 21.65625 24 15.003906 24 L 15 24 C 8.347656 24 6.003906 22.023438 6.003906 17.972656 C 6.003906 15.503906 7.484375 13.5 10.003906 13.5 Z M 10.5 17 C 9.671875 17 9 17.894531 9 19 C 9 20.105469 9.671875 21 10.5 21 C 11.328125 21 12 20.105469 12 19 C 12 17.894531 11.328125 17 10.5 17 Z M 19.5 17 C 18.671875 17 18 17.894531 18 19 C 18 20.105469 18.671875 21 19.5 21 C 20.328125 21 21 20.105469 21 19 C 21 17.894531 20.328125 17 19.5 17 Z M 19.5 17 "/>
</g>
</svg>
