<svg xmlns="http://www.w3.org/2000/svg" xmlns:xlink="http://www.w3.org/1999/xlink" width="750" zoomAndPan="magnify" viewBox="0 0 562.5 374.999991" height="500" preserveAspectRatio="xMidYMid meet" version="1.0"><defs><clipPath id="9d6ab2039b"><path d="M 110 358 L 409 358 L 409 374.832031 L 110 374.832031 Z M 110 358 " clip-rule="nonzero"/></clipPath><clipPath id="efbb2d433c"><path d="M 0 374 L 562 374 L 562 374.832031 L 0 374.832031 Z M 0 374 " clip-rule="nonzero"/></clipPath></defs><path fill="#e0e0e0" d="M 513.585938 85.6875 C 517.175781 87.5625 520.457031 89.875 523.433594 92.625 L 533.960938 88.886719 L 543.84375 104.488281 L 535.96875 112.441406 C 537.1875 116.304688 537.871094 120.257812 538.027344 124.304688 L 548.121094 129.09375 L 544.074219 147.117188 L 532.910156 147.117188 C 531.03125 150.710938 528.714844 153.996094 525.960938 156.96875 L 529.707031 167.480469 L 514.097656 177.367188 L 506.140625 169.496094 C 502.296875 170.703125 498.363281 171.382812 494.339844 171.546875 L 489.546875 181.636719 L 471.507812 177.589844 L 471.507812 166.429688 C 467.90625 164.554688 464.613281 162.242188 461.632812 159.488281 L 451.101562 163.234375 L 441.210938 147.628906 L 449.097656 139.679688 C 447.882812 135.816406 447.195312 131.859375 447.027344 127.8125 L 436.878906 123.058594 L 440.929688 105.035156 L 452.09375 105.035156 C 453.96875 101.441406 456.285156 98.160156 459.042969 95.183594 L 455.292969 84.671875 L 470.90625 74.785156 L 478.859375 82.65625 C 482.726562 81.441406 486.683594 80.757812 490.734375 80.597656 L 495.523438 70.507812 L 513.558594 74.554688 L 513.558594 85.714844 Z M 497.671875 106.890625 C 497.039062 106.75 496.398438 106.640625 495.753906 106.5625 C 495.109375 106.484375 494.464844 106.4375 493.816406 106.421875 C 493.164062 106.40625 492.515625 106.421875 491.871094 106.472656 C 491.222656 106.519531 490.578125 106.601562 489.941406 106.710938 C 489.300781 106.824219 488.667969 106.964844 488.042969 107.140625 C 487.417969 107.3125 486.800781 107.519531 486.195312 107.753906 C 485.589844 107.984375 484.996094 108.25 484.417969 108.542969 C 483.839844 108.835938 483.273438 109.15625 482.726562 109.503906 C 482.179688 109.851562 481.648438 110.222656 481.136719 110.625 C 480.625 111.023438 480.136719 111.445312 479.664062 111.894531 C 479.195312 112.34375 478.75 112.8125 478.324219 113.304688 C 477.902344 113.796875 477.503906 114.308594 477.128906 114.839844 C 476.757812 115.371094 476.410156 115.917969 476.089844 116.484375 C 475.769531 117.046875 475.480469 117.625 475.21875 118.21875 C 474.957031 118.8125 474.722656 119.417969 474.519531 120.035156 C 474.316406 120.652344 474.144531 121.277344 474.003906 121.910156 C 473.859375 122.542969 473.75 123.179688 473.671875 123.824219 C 473.59375 124.46875 473.546875 125.117188 473.53125 125.765625 C 473.515625 126.414062 473.53125 127.0625 473.578125 127.707031 C 473.628906 128.355469 473.707031 129 473.820312 129.636719 C 473.929688 130.277344 474.074219 130.910156 474.246094 131.535156 C 474.421875 132.160156 474.625 132.773438 474.859375 133.378906 C 475.09375 133.984375 475.355469 134.578125 475.648438 135.15625 C 475.941406 135.734375 476.261719 136.300781 476.609375 136.847656 C 476.957031 137.394531 477.332031 137.925781 477.730469 138.4375 C 478.128906 138.949219 478.554688 139.4375 479.003906 139.90625 C 479.449219 140.378906 479.921875 140.824219 480.414062 141.246094 C 480.90625 141.671875 481.414062 142.070312 481.945312 142.441406 C 482.476562 142.816406 483.027344 143.164062 483.589844 143.480469 C 484.15625 143.800781 484.734375 144.09375 485.328125 144.355469 C 485.921875 144.617188 486.527344 144.851562 487.144531 145.054688 C 487.761719 145.257812 488.386719 145.429688 489.019531 145.570312 C 489.652344 145.710938 490.292969 145.824219 490.9375 145.902344 C 491.582031 145.980469 492.226562 146.027344 492.878906 146.042969 C 493.527344 146.058594 494.175781 146.042969 494.820312 145.996094 C 495.46875 145.945312 496.113281 145.867188 496.753906 145.757812 C 497.390625 145.644531 498.023438 145.503906 498.652344 145.328125 C 499.277344 145.15625 499.890625 144.953125 500.496094 144.71875 C 501.101562 144.484375 501.695312 144.222656 502.277344 143.929688 C 502.855469 143.636719 503.417969 143.316406 503.96875 142.96875 C 504.515625 142.625 505.046875 142.25 505.558594 141.851562 C 506.070312 141.449219 506.5625 141.027344 507.03125 140.578125 C 507.5 140.132812 507.949219 139.664062 508.371094 139.171875 C 508.796875 138.679688 509.195312 138.167969 509.566406 137.636719 C 509.941406 137.105469 510.289062 136.558594 510.609375 135.996094 C 510.929688 135.429688 511.21875 134.851562 511.480469 134.257812 C 511.746094 133.664062 511.980469 133.058594 512.183594 132.445312 C 512.386719 131.828125 512.558594 131.203125 512.699219 130.570312 C 512.84375 129.9375 512.953125 129.296875 513.03125 128.652344 C 513.109375 128.007812 513.160156 127.363281 513.175781 126.714844 C 513.1875 126.066406 513.171875 125.417969 513.125 124.769531 C 513.078125 124.121094 512.996094 123.476562 512.886719 122.839844 C 512.773438 122.199219 512.632812 121.566406 512.457031 120.941406 C 512.285156 120.316406 512.082031 119.699219 511.847656 119.09375 C 511.613281 118.488281 511.347656 117.898438 511.054688 117.316406 C 510.765625 116.738281 510.445312 116.175781 510.097656 115.625 C 509.75 115.078125 509.375 114.546875 508.972656 114.035156 C 508.574219 113.523438 508.152344 113.035156 507.703125 112.566406 C 507.253906 112.09375 506.785156 111.648438 506.292969 111.226562 C 505.800781 110.800781 505.289062 110.402344 504.757812 110.027344 C 504.226562 109.65625 503.675781 109.308594 503.113281 108.988281 C 502.546875 108.671875 501.96875 108.378906 501.375 108.117188 C 500.78125 107.855469 500.175781 107.621094 499.558594 107.417969 C 498.941406 107.214844 498.316406 107.042969 497.679688 106.902344 Z M 497.671875 106.890625 " fill-opacity="1" fill-rule="evenodd"/><path fill="#e0e0e0" d="M 414.363281 51.1875 C 415.574219 51.359375 416.726562 51.722656 417.820312 52.273438 C 419.339844 53 420.691406 53.964844 421.878906 55.160156 C 423.0625 56.355469 424.011719 57.71875 424.726562 59.246094 C 425.734375 61.378906 426.203125 63.625 426.128906 65.984375 C 426.046875 68.71875 425.273438 71.238281 423.8125 73.546875 C 422.179688 76.113281 419.96875 78.007812 417.183594 79.230469 C 416.457031 79.550781 415.707031 79.8125 414.9375 80.015625 C 414.167969 80.21875 413.386719 80.359375 412.597656 80.4375 C 411.804688 80.515625 411.011719 80.527344 410.21875 80.480469 C 409.421875 80.429688 408.636719 80.320312 407.863281 80.144531 C 407.085938 79.972656 406.328125 79.738281 405.589844 79.445312 C 404.851562 79.148438 404.140625 78.796875 403.457031 78.390625 C 402.773438 77.980469 402.128906 77.523438 401.519531 77.011719 C 400.90625 76.5 400.34375 75.941406 399.824219 75.34375 C 397.84375 73.046875 396.664062 70.394531 396.285156 67.390625 C 395.941406 64.683594 396.3125 62.078125 397.398438 59.570312 C 398.347656 57.40625 399.730469 55.578125 401.554688 54.078125 C 402.851562 53.003906 404.292969 52.179688 405.875 51.609375 C 407.457031 51.035156 409.089844 50.742188 410.773438 50.738281 C 412 50.703125 413.195312 50.871094 414.363281 51.230469 C 414.363281 51.335938 413.082031 50.976562 410.828125 51.0625 C 409.199219 51.140625 407.625 51.480469 406.109375 52.085938 C 404.597656 52.691406 403.222656 53.53125 401.988281 54.597656 C 401.078125 55.371094 400.277344 56.246094 399.585938 57.21875 C 398.894531 58.195312 398.335938 59.242188 397.910156 60.355469 C 397.480469 61.472656 397.199219 62.621094 397.058594 63.808594 C 396.921875 64.996094 396.929688 66.179688 397.089844 67.363281 C 397.257812 68.734375 397.628906 70.042969 398.203125 71.296875 C 398.777344 72.617188 399.542969 73.816406 400.503906 74.890625 C 400.996094 75.460938 401.53125 75.984375 402.105469 76.46875 C 402.679688 76.949219 403.292969 77.382812 403.9375 77.769531 C 404.582031 78.15625 405.253906 78.488281 405.953125 78.765625 C 406.652344 79.042969 407.367188 79.265625 408.101562 79.429688 C 408.835938 79.59375 409.578125 79.699219 410.328125 79.746094 C 411.078125 79.792969 411.828125 79.777344 412.574219 79.703125 C 413.324219 79.632812 414.0625 79.5 414.789062 79.308594 C 415.515625 79.117188 416.222656 78.871094 416.910156 78.566406 C 419.550781 77.414062 421.652344 75.632812 423.214844 73.210938 C 424.617188 71.027344 425.375 68.640625 425.484375 66.046875 C 425.582031 63.792969 425.167969 61.636719 424.238281 59.582031 C 423.570312 58.097656 422.679688 56.761719 421.5625 55.574219 C 420.449219 54.386719 419.171875 53.414062 417.730469 52.652344 C 415.664062 51.503906 414.335938 51.285156 414.363281 51.1875 Z M 414.363281 51.1875 " fill-opacity="1" fill-rule="nonzero"/><path fill="#e0e0e0" d="M 426.105469 35.53125 C 426.09375 35.359375 426.09375 35.183594 426.105469 35.011719 C 426.105469 34.628906 426.105469 34.125 426.105469 33.457031 C 426.105469 32.023438 426.078125 29.960938 426.023438 27.269531 L 426.128906 27.402344 L 412.789062 24.488281 L 413.03125 24.371094 L 409.492188 31.828125 L 409.429688 31.972656 L 409.28125 31.972656 C 406.3125 32.105469 403.414062 32.617188 400.582031 33.515625 L 400.421875 33.570312 L 400.308594 33.445312 L 394.449219 27.667969 L 394.820312 27.667969 L 383.328125 34.992188 L 383.460938 34.605469 C 384.34375 37.007812 385.273438 39.65625 386.246094 42.371094 L 386.316406 42.5625 L 386.164062 42.722656 C 384.15625 44.898438 382.472656 47.296875 381.109375 49.921875 L 381.011719 50.117188 L 372.542969 50.117188 L 372.914062 49.828125 C 371.976562 54.003906 370.96875 58.519531 369.941406 63.140625 L 369.722656 62.699219 L 377.175781 66.234375 L 377.394531 66.332031 L 377.394531 66.640625 C 377.515625 69.589844 378.019531 72.472656 378.90625 75.289062 L 378.988281 75.527344 L 378.808594 75.695312 L 372.992188 81.542969 L 373.046875 81.03125 C 375.363281 84.679688 377.847656 88.585938 380.355469 92.515625 L 379.863281 92.347656 L 387.632812 89.585938 L 387.878906 89.496094 L 388.066406 89.664062 C 390.226562 91.671875 392.617188 93.355469 395.234375 94.71875 L 395.464844 95.089844 L 395.464844 103.324219 L 395.136719 102.90625 L 408.460938 105.902344 L 407.992188 106.125 C 409.167969 103.621094 410.347656 101.140625 411.527344 98.683594 L 411.640625 98.453125 L 411.890625 98.453125 C 414.839844 98.339844 417.726562 97.839844 420.542969 96.953125 L 420.78125 96.882812 L 420.957031 97.058594 L 426.792969 102.878906 L 426.273438 102.863281 L 437.761719 95.582031 L 437.605469 96.035156 C 436.667969 93.382812 435.757812 90.8125 434.847656 88.269531 L 434.777344 88.046875 L 434.925781 87.878906 C 436.941406 85.714844 438.636719 83.324219 440.007812 80.703125 L 440.105469 80.511719 L 448.574219 80.511719 L 448.230469 80.785156 C 449.289062 76.101562 450.296875 71.683594 451.246094 67.480469 L 451.421875 67.839844 L 443.988281 64.308594 L 443.820312 64.226562 L 443.820312 63.988281 C 443.710938 61.027344 443.214844 58.132812 442.332031 55.304688 L 442.28125 55.144531 L 442.40625 55.023438 L 448.238281 49.199219 L 448.238281 49.507812 L 440.988281 37.960938 L 441.210938 38.03125 L 433.421875 40.753906 L 433.34375 40.753906 L 433.28125 40.691406 C 431.648438 39.160156 429.878906 37.800781 427.976562 36.617188 L 426.5625 35.734375 C 426.402344 35.648438 426.246094 35.554688 426.09375 35.453125 C 426.269531 35.511719 426.4375 35.585938 426.597656 35.671875 C 426.925781 35.839844 427.410156 36.097656 428.046875 36.46875 C 429.988281 37.617188 431.792969 38.949219 433.457031 40.46875 L 433.324219 40.46875 L 441.078125 37.652344 L 441.21875 37.597656 L 441.300781 37.730469 L 448.65625 49.21875 L 448.761719 49.386719 L 448.621094 49.527344 C 446.851562 51.292969 444.925781 53.253906 442.820312 55.394531 L 442.882812 55.109375 C 443.800781 57.984375 444.324219 60.929688 444.445312 63.945312 L 444.277344 63.679688 L 451.738281 67.214844 L 451.96875 67.328125 L 451.90625 67.574219 C 451.023438 71.789062 449.988281 76.207031 448.957031 80.890625 L 448.894531 81.164062 L 440.363281 81.164062 L 440.691406 80.96875 C 439.296875 83.652344 437.574219 86.101562 435.519531 88.320312 L 435.597656 87.941406 C 436.5 90.484375 437.425781 93.074219 438.375 95.707031 L 438.472656 96 L 438.214844 96.167969 L 426.722656 103.472656 L 426.449219 103.640625 L 426.226562 103.417969 L 420.375 97.605469 L 420.78125 97.703125 C 417.90625 98.617188 414.957031 99.132812 411.941406 99.25 L 412.304688 99.019531 L 408.769531 106.46875 L 408.628906 106.769531 L 408.300781 106.6875 L 394.933594 103.746094 L 394.605469 103.675781 L 394.605469 103.339844 C 394.605469 101.972656 394.605469 100.601562 394.605469 99.230469 L 394.605469 95.105469 C 395.058594 95.847656 394.730469 95.308594 394.828125 95.476562 C 392.148438 94.074219 389.695312 92.34375 387.472656 90.289062 L 387.898438 90.378906 L 380.101562 93.144531 L 379.78125 93.25 L 379.605469 92.96875 L 372.3125 81.480469 L 372.136719 81.207031 L 372.367188 80.96875 L 378.191406 75.128906 L 378.09375 75.546875 C 377.1875 72.667969 376.675781 69.722656 376.554688 66.710938 L 376.777344 67.054688 L 369.332031 63.519531 L 369.050781 63.386719 L 369.121094 63.078125 L 372.125 49.828125 L 372.1875 49.527344 L 380.738281 49.527344 L 380.417969 49.71875 C 381.8125 47.003906 383.539062 44.527344 385.609375 42.28125 L 385.535156 42.636719 L 382.777344 34.832031 L 382.691406 34.585938 L 382.921875 34.445312 L 394.449219 27.199219 L 394.652344 27.078125 L 394.820312 27.246094 C 396.878906 29.285156 398.867188 31.300781 400.636719 33.066406 L 400.351562 32.996094 C 403.230469 32.097656 406.179688 31.597656 409.191406 31.492188 L 408.980469 31.625 C 410.269531 28.976562 411.472656 26.449219 412.515625 24.203125 L 412.585938 24.046875 L 412.753906 24.046875 L 426.015625 27.113281 L 426.121094 27.113281 L 426.121094 27.21875 C 426.121094 29.867188 426.105469 31.90625 426.070312 33.332031 C 426.070312 34.003906 426.070312 34.523438 426.070312 34.914062 C 426.09375 35.117188 426.105469 35.324219 426.105469 35.53125 Z M 426.105469 35.53125 " fill-opacity="1" fill-rule="nonzero"/><path fill="#e0e0e0" d="M 57.972656 239.347656 C 58.773438 239.597656 59.515625 239.96875 60.199219 240.460938 C 61.148438 241.121094 61.957031 241.921875 62.628906 242.863281 C 63.300781 243.804688 63.792969 244.832031 64.105469 245.945312 C 64.550781 247.503906 64.621094 249.082031 64.316406 250.671875 C 63.953125 252.511719 63.148438 254.136719 61.90625 255.539062 C 60.515625 257.09375 58.8125 258.132812 56.796875 258.660156 C 56.265625 258.796875 55.730469 258.890625 55.1875 258.945312 C 54.640625 258.996094 54.097656 259.003906 53.550781 258.96875 C 53.007812 258.9375 52.46875 258.859375 51.933594 258.738281 C 51.402344 258.617188 50.882812 258.453125 50.375 258.25 C 49.867188 258.046875 49.378906 257.804688 48.910156 257.523438 C 48.441406 257.242188 48 256.925781 47.582031 256.574219 C 47.164062 256.222656 46.777344 255.839844 46.417969 255.425781 C 46.0625 255.011719 45.738281 254.574219 45.453125 254.109375 C 44.902344 253.222656 44.5 252.277344 44.242188 251.265625 C 43.984375 250.296875 43.875 249.3125 43.925781 248.3125 C 44 246.441406 44.542969 244.714844 45.558594 243.136719 C 46.089844 242.316406 46.726562 241.589844 47.464844 240.953125 C 48.207031 240.316406 49.019531 239.800781 49.910156 239.398438 C 50.800781 238.996094 51.726562 238.730469 52.695312 238.597656 C 53.660156 238.460938 54.628906 238.46875 55.59375 238.613281 C 56.425781 238.726562 57.21875 238.96875 57.972656 239.347656 C 57.972656 239.417969 57.085938 239.035156 55.566406 238.832031 C 54.453125 238.703125 53.351562 238.757812 52.257812 238.996094 C 51.164062 239.234375 50.140625 239.644531 49.183594 240.230469 C 47.859375 241.03125 46.78125 242.082031 45.957031 243.394531 C 45.015625 244.90625 44.511719 246.550781 44.453125 248.332031 C 44.421875 249.277344 44.527344 250.207031 44.773438 251.125 C 45.019531 252.070312 45.410156 252.953125 45.941406 253.773438 C 46.484375 254.65625 47.15625 255.433594 47.949219 256.101562 C 48.746094 256.769531 49.625 257.300781 50.589844 257.6875 C 51.550781 258.074219 52.554688 258.300781 53.589844 258.367188 C 54.625 258.433594 55.648438 258.335938 56.652344 258.078125 C 58.566406 257.585938 60.1875 256.605469 61.515625 255.144531 C 62.0625 254.535156 62.527344 253.867188 62.910156 253.144531 C 63.292969 252.417969 63.578125 251.660156 63.769531 250.863281 C 63.960938 250.066406 64.050781 249.257812 64.039062 248.441406 C 64.03125 247.621094 63.917969 246.816406 63.707031 246.027344 C 63.421875 244.945312 62.964844 243.941406 62.339844 243.011719 C 61.714844 242.085938 60.957031 241.285156 60.066406 240.609375 C 59.390625 240.152344 58.691406 239.730469 57.972656 239.347656 Z M 57.972656 239.347656 " fill-opacity="1" fill-rule="nonzero"/><path fill="#e0e0e0" d="M 67.660156 230.023438 C 67.644531 229.910156 67.644531 229.796875 67.660156 229.679688 C 67.660156 229.414062 67.738281 229.070312 67.808594 228.621094 C 67.949219 227.648438 68.15625 226.242188 68.429688 224.433594 L 68.480469 224.53125 L 59.773438 221.085938 L 59.941406 221.03125 C 58.976562 222.453125 57.898438 224.015625 56.75 225.703125 L 56.6875 225.785156 L 56.582031 225.785156 C 54.558594 225.539062 52.542969 225.570312 50.527344 225.871094 L 50.414062 225.871094 L 50.34375 225.777344 L 47.035156 221.253906 L 47.273438 221.324219 L 38.671875 225.015625 L 38.804688 224.769531 C 39.125 226.492188 39.476562 228.382812 39.832031 230.335938 L 39.832031 230.476562 L 39.714844 230.5625 C 38.136719 231.804688 36.746094 233.230469 35.542969 234.839844 L 35.457031 234.964844 L 35.304688 234.964844 L 29.710938 234.082031 L 29.992188 233.921875 C 28.894531 236.652344 27.71875 239.601562 26.507812 242.613281 L 26.410156 242.296875 L 31.070312 245.511719 L 31.210938 245.601562 L 31.210938 245.769531 C 30.96875 247.78125 30.992188 249.789062 31.28125 251.792969 L 31.28125 251.960938 L 31.148438 252.070312 L 26.5625 255.382812 L 26.652344 255.046875 L 30.335938 263.660156 L 30.019531 263.492188 L 35.585938 262.476562 L 35.765625 262.476562 L 35.871094 262.609375 C 37.117188 264.207031 38.550781 265.609375 40.175781 266.824219 C 40.230469 266.945312 40.070312 266.550781 40.289062 267.105469 L 40.289062 267.371094 L 40.230469 267.722656 L 40.121094 268.421875 L 39.894531 269.828125 C 39.742188 270.753906 39.59375 271.691406 39.441406 272.609375 L 39.265625 272.300781 L 47.964844 275.789062 L 47.617188 275.898438 L 50.835938 271.242188 L 50.933594 271.097656 L 51.109375 271.097656 C 53.125 271.355469 55.132812 271.332031 57.140625 271.039062 L 57.308594 271.039062 L 57.40625 271.167969 L 60.71875 275.765625 L 60.394531 275.667969 L 69.011719 272 L 68.851562 272.292969 C 68.515625 270.402344 68.179688 268.546875 67.84375 266.726562 L 67.84375 266.566406 L 67.96875 266.476562 C 69.570312 265.226562 70.984375 263.792969 72.203125 262.167969 L 72.292969 262.042969 L 72.441406 262.042969 L 78.027344 262.925781 L 77.761719 263.066406 L 81.300781 254.390625 L 81.378906 254.65625 L 76.730469 251.421875 L 76.625 251.351562 L 76.625 251.230469 C 76.875 249.210938 76.855469 247.191406 76.570312 245.175781 L 76.570312 245.0625 L 76.667969 245 L 81.265625 241.695312 L 81.210938 241.898438 C 79.796875 238.558594 78.558594 235.714844 77.570312 233.277344 L 77.710938 233.347656 L 72.132812 234.328125 L 72.078125 234.328125 L 72.078125 234.285156 C 71.144531 233.066406 70.097656 231.953125 68.941406 230.945312 L 68.058594 230.203125 C 67.855469 230.042969 67.765625 229.964844 67.773438 229.953125 L 68.082031 230.167969 C 68.285156 230.316406 68.597656 230.546875 68.96875 230.863281 C 70.152344 231.859375 71.230469 232.960938 72.195312 234.167969 L 72.097656 234.167969 L 77.667969 233.109375 L 77.761719 233.109375 L 77.761719 233.207031 L 81.476562 241.800781 L 81.53125 241.925781 L 81.421875 242.003906 L 76.84375 245.335938 L 76.921875 245.160156 C 77.230469 247.21875 77.257812 249.277344 77.003906 251.34375 L 76.914062 251.148438 L 81.582031 254.355469 L 81.734375 254.453125 L 81.660156 254.613281 C 80.566406 257.371094 79.40625 260.25 78.1875 263.316406 L 78.117188 263.492188 L 77.921875 263.492188 L 72.335938 262.609375 L 72.574219 262.511719 C 71.335938 264.175781 69.898438 265.648438 68.261719 266.929688 L 68.359375 266.671875 C 68.695312 268.503906 69.03125 270.359375 69.375 272.238281 L 69.375 272.449219 L 69.136719 272.496094 L 60.515625 276.179688 L 60.320312 276.269531 L 60.191406 276.089844 L 56.867188 271.503906 L 57.132812 271.621094 C 55.070312 271.921875 53.007812 271.945312 50.941406 271.691406 L 51.207031 271.566406 C 50.148438 273.105469 49.074219 274.65625 47.992188 276.222656 L 47.867188 276.417969 L 47.65625 276.328125 L 38.957031 272.839844 L 38.742188 272.761719 L 38.742188 272.53125 L 39.195312 269.746094 L 39.414062 268.34375 L 39.53125 267.644531 L 39.582031 267.292969 L 39.582031 266.957031 C 39.804688 267.503906 39.644531 267.105469 39.691406 267.230469 C 38.019531 265.992188 36.546875 264.550781 35.269531 262.910156 L 35.542969 263.015625 L 29.972656 264.03125 L 29.746094 264.074219 L 29.65625 263.863281 C 28.390625 260.902344 27.144531 257.980469 25.988281 255.25 L 25.898438 255.035156 L 26.074219 254.90625 L 30.671875 251.589844 L 30.558594 251.867188 C 30.261719 249.804688 30.242188 247.746094 30.496094 245.679688 L 30.609375 245.945312 L 25.960938 242.722656 L 25.785156 242.597656 L 25.863281 242.402344 C 27.074219 239.382812 28.257812 236.4375 29.398438 233.71875 L 29.480469 233.523438 L 29.683594 233.523438 L 35.269531 234.40625 L 35.03125 234.503906 C 36.273438 232.839844 37.714844 231.367188 39.355469 230.085938 L 39.265625 230.316406 C 38.910156 228.371094 38.574219 226.472656 38.257812 224.75 L 38.257812 224.574219 L 38.425781 224.503906 L 47.042969 220.84375 L 47.195312 220.785156 L 47.292969 220.917969 L 50.597656 225.511719 L 50.421875 225.429688 C 52.480469 225.136719 54.542969 225.125 56.609375 225.386719 L 56.449219 225.457031 L 59.6875 220.820312 L 59.757812 220.722656 L 59.863281 220.765625 L 68.535156 224.300781 L 68.605469 224.300781 L 68.605469 224.371094 L 67.890625 228.503906 C 67.808594 228.957031 67.738281 229.308594 67.695312 229.574219 C 67.699219 229.726562 67.6875 229.875 67.660156 230.023438 Z M 67.660156 230.023438 " fill-opacity="1" fill-rule="nonzero"/><path fill="#e0e0e0" d="M 141.570312 276.984375 C 144.453125 279.136719 147 281.628906 149.207031 284.464844 L 158.933594 282.699219 L 165.375 297.789062 L 157.332031 303.601562 C 157.855469 307.164062 157.894531 310.730469 157.457031 314.300781 L 165.617188 319.9375 L 159.488281 335.160156 L 149.695312 333.589844 C 147.542969 336.472656 145.046875 339.023438 142.207031 341.230469 L 143.976562 350.949219 L 128.875 357.390625 L 123.113281 349.359375 C 119.550781 349.875 115.980469 349.910156 112.40625 349.472656 L 106.777344 357.628906 L 91.535156 351.515625 L 93.109375 341.726562 C 90.226562 339.570312 87.675781 337.074219 85.464844 334.234375 L 75.695312 336 L 69.257812 320.910156 L 77.296875 315.097656 C 76.78125 311.535156 76.742188 307.96875 77.179688 304.398438 L 69.019531 298.761719 L 75.136719 283.539062 L 84.933594 285.113281 C 87.089844 282.226562 89.585938 279.679688 92.429688 277.46875 L 90.660156 267.707031 L 105.757812 261.265625 L 111.578125 269.304688 C 115.140625 268.789062 118.707031 268.75 122.28125 269.191406 L 127.921875 261.035156 L 143.136719 267.195312 Z M 124.597656 293.308594 C 124.0625 293.09375 123.519531 292.90625 122.964844 292.746094 C 122.410156 292.582031 121.847656 292.449219 121.28125 292.34375 C 120.714844 292.234375 120.144531 292.15625 119.570312 292.105469 C 118.996094 292.058594 118.417969 292.035156 117.839844 292.039062 C 117.265625 292.046875 116.6875 292.082031 116.117188 292.144531 C 115.542969 292.207031 114.972656 292.296875 114.40625 292.414062 C 113.84375 292.535156 113.285156 292.679688 112.734375 292.851562 C 112.183594 293.027344 111.644531 293.226562 111.113281 293.453125 C 110.582031 293.679688 110.0625 293.929688 109.558594 294.207031 C 109.050781 294.484375 108.5625 294.785156 108.085938 295.109375 C 107.609375 295.4375 107.148438 295.785156 106.707031 296.15625 C 106.265625 296.523438 105.839844 296.917969 105.4375 297.328125 C 105.035156 297.742188 104.652344 298.171875 104.289062 298.621094 C 103.929688 299.070312 103.589844 299.539062 103.273438 300.019531 C 102.960938 300.503906 102.667969 301 102.402344 301.511719 C 102.136719 302.023438 101.894531 302.546875 101.679688 303.082031 C 101.464844 303.617188 101.273438 304.160156 101.113281 304.714844 C 100.953125 305.269531 100.816406 305.828125 100.710938 306.394531 C 100.605469 306.960938 100.527344 307.53125 100.476562 308.105469 C 100.425781 308.683594 100.402344 309.257812 100.410156 309.835938 C 100.414062 310.410156 100.449219 310.984375 100.511719 311.558594 C 100.574219 312.132812 100.664062 312.703125 100.785156 313.265625 C 100.902344 313.832031 101.046875 314.386719 101.222656 314.9375 C 101.394531 315.488281 101.59375 316.027344 101.820312 316.558594 C 102.046875 317.089844 102.300781 317.605469 102.578125 318.113281 C 102.855469 318.617188 103.15625 319.109375 103.480469 319.585938 C 103.808594 320.0625 104.15625 320.519531 104.527344 320.960938 C 104.898438 321.402344 105.289062 321.828125 105.703125 322.230469 C 106.113281 322.632812 106.546875 323.015625 106.996094 323.378906 C 107.445312 323.738281 107.910156 324.078125 108.394531 324.390625 C 108.878906 324.707031 109.375 324.996094 109.886719 325.265625 C 110.398438 325.53125 110.921875 325.769531 111.457031 325.988281 C 111.992188 326.203125 112.539062 326.390625 113.09375 326.550781 C 113.644531 326.710938 114.207031 326.847656 114.773438 326.953125 C 115.339844 327.058594 115.910156 327.136719 116.488281 327.1875 C 117.0625 327.238281 117.636719 327.261719 118.214844 327.253906 C 118.792969 327.25 119.367188 327.214844 119.941406 327.152344 C 120.515625 327.089844 121.082031 327 121.648438 326.878906 C 122.210938 326.761719 122.769531 326.617188 123.320312 326.441406 C 123.871094 326.269531 124.410156 326.070312 124.941406 325.84375 C 125.472656 325.617188 125.992188 325.363281 126.496094 325.085938 C 127.003906 324.808594 127.496094 324.507812 127.972656 324.183594 C 128.445312 323.855469 128.90625 323.507812 129.347656 323.136719 C 129.789062 322.769531 130.214844 322.375 130.617188 321.964844 C 131.019531 321.550781 131.402344 321.121094 131.765625 320.671875 C 132.125 320.222656 132.464844 319.753906 132.78125 319.273438 C 133.09375 318.789062 133.386719 318.292969 133.652344 317.78125 C 133.917969 317.269531 134.160156 316.746094 134.375 316.210938 C 134.589844 315.675781 134.777344 315.132812 134.941406 314.578125 C 135.101562 314.023438 135.234375 313.464844 135.339844 312.898438 C 135.449219 312.332031 135.527344 311.761719 135.578125 311.1875 C 135.628906 310.613281 135.648438 310.035156 135.644531 309.460938 C 135.636719 308.882812 135.601562 308.308594 135.539062 307.734375 C 135.476562 307.160156 135.386719 306.59375 135.269531 306.027344 C 135.148438 305.464844 135.003906 304.90625 134.832031 304.359375 C 134.65625 303.808594 134.457031 303.265625 134.230469 302.738281 C 134.003906 302.207031 133.753906 301.6875 133.476562 301.183594 C 133.199219 300.679688 132.894531 300.1875 132.570312 299.710938 C 132.246094 299.234375 131.898438 298.777344 131.527344 298.335938 C 131.15625 297.890625 130.765625 297.46875 130.351562 297.066406 C 129.941406 296.664062 129.507812 296.28125 129.058594 295.917969 C 128.609375 295.558594 128.144531 295.21875 127.660156 294.90625 C 127.175781 294.589844 126.679688 294.300781 126.167969 294.03125 C 125.65625 293.765625 125.132812 293.527344 124.597656 293.308594 Z M 124.597656 293.308594 " fill-opacity="1" fill-rule="evenodd"/><path fill="#ebebeb" d="M 140.898438 179.796875 L 34.351562 179.796875 L 34.351562 47.363281 L 115.855469 47.601562 L 140.898438 74.785156 Z M 140.898438 179.796875 " fill-opacity="1" fill-rule="nonzero"/><path fill="#263238" d="M 66.21875 122.917969 C 66.085938 123.050781 64.316406 121.453125 61.570312 118.765625 C 58.820312 116.082031 55.078125 112.300781 51.011719 108.058594 L 50.5625 107.582031 L 51.011719 107.105469 L 51.011719 107.058594 C 55.0625 102.792969 58.785156 98.976562 61.535156 96.261719 C 64.28125 93.550781 66.042969 91.933594 66.175781 92.066406 C 66.308594 92.199219 64.804688 94.046875 62.242188 96.933594 C 59.675781 99.824219 56.050781 103.738281 52.011719 108.015625 L 51.96875 108.015625 L 51.96875 107.105469 C 56.035156 111.34375 59.648438 115.230469 62.222656 118.09375 C 64.796875 120.957031 66.359375 122.785156 66.21875 122.917969 Z M 66.21875 122.917969 " fill-opacity="1" fill-rule="nonzero"/><path fill="#263238" d="M 108.976562 92.066406 C 109.117188 91.933594 110.886719 93.535156 113.636719 96.21875 C 116.386719 98.90625 120.125 102.6875 124.183594 106.925781 L 124.640625 107.402344 L 124.191406 107.882812 L 124.148438 107.882812 C 120.089844 112.15625 116.367188 115.964844 113.628906 118.675781 C 110.886719 121.390625 109.117188 123.007812 108.976562 122.875 C 108.835938 122.742188 110.355469 120.894531 112.921875 118.007812 C 115.484375 115.117188 119.109375 111.203125 123.140625 106.9375 L 123.140625 106.882812 L 123.140625 107.835938 C 119.082031 103.597656 115.457031 99.707031 112.886719 96.855469 C 110.3125 94 108.84375 92.199219 108.976562 92.066406 Z M 108.976562 92.066406 " fill-opacity="1" fill-rule="nonzero"/><path fill="#263238" d="M 74.632812 127.785156 C 74.316406 127.59375 79.839844 117.960938 87.011719 106.28125 C 94.179688 94.601562 100.207031 85.300781 100.535156 85.503906 C 100.863281 85.707031 95.335938 95.328125 88.160156 107.007812 C 80.980469 118.6875 74.960938 127.988281 74.632812 127.785156 Z M 74.632812 127.785156 " fill-opacity="1" fill-rule="nonzero"/><path fill="#e0e0e0" d="M 115.847656 47.609375 L 115.75 69.792969 C 115.746094 70.175781 115.785156 70.554688 115.859375 70.929688 C 115.933594 71.304688 116.046875 71.667969 116.195312 72.023438 C 116.34375 72.375 116.523438 72.710938 116.738281 73.027344 C 116.953125 73.34375 117.199219 73.632812 117.472656 73.902344 C 117.75 74.167969 118.046875 74.40625 118.367188 74.613281 C 118.691406 74.820312 119.03125 74.992188 119.386719 75.132812 C 119.742188 75.269531 120.109375 75.371094 120.488281 75.4375 C 120.863281 75.503906 121.246094 75.53125 121.628906 75.519531 L 140.898438 74.804688 Z M 115.847656 47.609375 " fill-opacity="1" fill-rule="nonzero"/><path fill="#5e17eb" d="M 21.914062 137.070312 L 69.164062 137.070312 L 69.164062 165.777344 L 21.914062 165.777344 Z M 21.914062 137.070312 " fill-opacity="1" fill-rule="nonzero"/><path fill="#ffffff" d="M 35.339844 157.296875 L 36.570312 155.875 C 36.898438 156.414062 37.339844 156.839844 37.890625 157.152344 C 38.4375 157.464844 39.03125 157.628906 39.664062 157.640625 C 41.332031 157.640625 42.199219 156.625 42.199219 154.628906 L 42.199219 146.304688 L 36.84375 146.304688 L 36.84375 144.46875 L 44.304688 144.46875 L 44.304688 154.519531 C 44.304688 157.824219 42.695312 159.460938 39.664062 159.460938 C 38.808594 159.476562 38 159.292969 37.234375 158.910156 C 36.46875 158.527344 35.839844 157.988281 35.339844 157.296875 Z M 35.339844 157.296875 " fill-opacity="1" fill-rule="nonzero"/><path fill="#ffffff" d="M 47.265625 157.570312 L 48.050781 155.917969 C 49.472656 157.078125 51.105469 157.648438 52.941406 157.632812 C 55.511719 157.632812 56.609375 156.632812 56.609375 155.34375 C 56.609375 151.71875 47.628906 154.007812 47.628906 148.503906 C 47.628906 146.214844 49.394531 144.265625 53.304688 144.265625 C 55.023438 144.234375 56.617188 144.671875 58.078125 145.582031 L 57.371094 147.277344 C 56.132812 146.480469 54.777344 146.074219 53.304688 146.066406 C 50.785156 146.066406 49.707031 147.125 49.707031 148.417969 C 49.707031 152.039062 58.6875 149.777344 58.6875 155.21875 C 58.6875 157.480469 56.867188 159.433594 52.941406 159.433594 C 51.914062 159.460938 50.914062 159.316406 49.941406 158.996094 C 48.964844 158.675781 48.074219 158.199219 47.265625 157.570312 Z M 47.265625 157.570312 " fill-opacity="1" fill-rule="nonzero"/><path fill="#263238" d="M 254.652344 119.886719 L 494.957031 119.886719 L 494.957031 259.835938 L 254.652344 259.835938 Z M 254.652344 119.886719 " fill-opacity="1" fill-rule="nonzero"/><path fill="#e0e0e0" d="M 273.445312 252.792969 C 273.320312 252.792969 273.214844 224.175781 273.214844 188.878906 C 273.214844 153.585938 273.339844 124.949219 273.445312 124.949219 C 273.550781 124.949219 273.675781 153.558594 273.675781 188.863281 C 273.675781 224.167969 273.578125 252.792969 273.445312 252.792969 Z M 273.445312 252.792969 " fill-opacity="1" fill-rule="nonzero"/><path fill="#e0e0e0" d="M 268.503906 130.359375 C 265.851562 130.664062 263.199219 130.664062 260.546875 130.359375 C 263.199219 130.050781 265.851562 130.050781 268.503906 130.359375 Z M 268.503906 130.359375 " fill-opacity="1" fill-rule="nonzero"/><path fill="#e0e0e0" d="M 268.503906 138.777344 C 265.851562 139.085938 263.199219 139.085938 260.546875 138.777344 C 263.199219 138.46875 265.851562 138.46875 268.503906 138.777344 Z M 268.503906 138.777344 " fill-opacity="1" fill-rule="nonzero"/><path fill="#e0e0e0" d="M 268.503906 147.207031 C 265.851562 147.511719 263.199219 147.511719 260.546875 147.207031 C 263.199219 146.898438 265.851562 146.898438 268.503906 147.207031 Z M 268.503906 147.207031 " fill-opacity="1" fill-rule="nonzero"/><path fill="#e0e0e0" d="M 268.503906 155.625 C 265.851562 155.933594 263.199219 155.933594 260.546875 155.625 C 263.199219 155.320312 265.851562 155.320312 268.503906 155.625 Z M 268.503906 155.625 " fill-opacity="1" fill-rule="nonzero"/><path fill="#e0e0e0" d="M 268.503906 164.046875 C 265.851562 164.351562 263.199219 164.351562 260.546875 164.046875 C 263.199219 163.738281 265.851562 163.738281 268.503906 164.046875 Z M 268.503906 164.046875 " fill-opacity="1" fill-rule="nonzero"/><path fill="#e0e0e0" d="M 268.503906 172.472656 C 265.851562 172.78125 263.199219 172.78125 260.546875 172.472656 C 263.199219 172.167969 265.851562 172.167969 268.503906 172.472656 Z M 268.503906 172.472656 " fill-opacity="1" fill-rule="nonzero"/><path fill="#e0e0e0" d="M 268.503906 180.894531 C 265.851562 181.199219 263.199219 181.199219 260.546875 180.894531 C 263.199219 180.585938 265.851562 180.585938 268.503906 180.894531 Z M 268.503906 180.894531 " fill-opacity="1" fill-rule="nonzero"/><path fill="#e0e0e0" d="M 268.503906 189.3125 C 265.851562 189.621094 263.199219 189.621094 260.546875 189.3125 C 263.199219 189.007812 265.851562 189.007812 268.503906 189.3125 Z M 268.503906 189.3125 " fill-opacity="1" fill-rule="nonzero"/><path fill="#e0e0e0" d="M 268.503906 197.742188 C 265.851562 198.050781 263.199219 198.050781 260.546875 197.742188 C 263.199219 197.433594 265.851562 197.433594 268.503906 197.742188 Z M 268.503906 197.742188 " fill-opacity="1" fill-rule="nonzero"/><path fill="#e0e0e0" d="M 268.503906 206.160156 C 265.851562 206.46875 263.199219 206.46875 260.546875 206.160156 C 263.199219 205.855469 265.851562 205.855469 268.503906 206.160156 Z M 268.503906 206.160156 " fill-opacity="1" fill-rule="nonzero"/><path fill="#e0e0e0" d="M 268.503906 214.582031 C 265.851562 214.890625 263.199219 214.890625 260.546875 214.582031 C 263.199219 214.273438 265.851562 214.273438 268.503906 214.582031 Z M 268.503906 214.582031 " fill-opacity="1" fill-rule="nonzero"/><path fill="#e0e0e0" d="M 268.503906 223.019531 C 265.851562 223.328125 263.199219 223.328125 260.546875 223.019531 C 263.199219 222.710938 265.851562 222.710938 268.503906 223.019531 Z M 268.503906 223.019531 " fill-opacity="1" fill-rule="nonzero"/><path fill="#e0e0e0" d="M 268.503906 231.429688 C 265.851562 231.738281 263.199219 231.738281 260.546875 231.429688 C 263.199219 231.121094 265.851562 231.121094 268.503906 231.429688 Z M 268.503906 231.429688 " fill-opacity="1" fill-rule="nonzero"/><path fill="#e0e0e0" d="M 268.503906 239.851562 C 265.851562 240.15625 263.199219 240.15625 260.546875 239.851562 C 263.199219 239.542969 265.851562 239.542969 268.503906 239.851562 Z M 268.503906 239.851562 " fill-opacity="1" fill-rule="nonzero"/><path fill="#e0e0e0" d="M 268.503906 248.277344 C 265.851562 248.585938 263.199219 248.585938 260.546875 248.277344 C 263.199219 247.972656 265.851562 247.972656 268.503906 248.277344 Z M 268.503906 248.277344 " fill-opacity="1" fill-rule="nonzero"/><path fill="#5e17eb" d="M 300.40625 129.863281 C 300.40625 129.988281 295.785156 130.09375 290.082031 130.09375 C 284.378906 130.09375 279.75 129.988281 279.75 129.863281 C 279.75 129.738281 284.371094 129.632812 290.082031 129.632812 C 295.792969 129.632812 300.40625 129.730469 300.40625 129.863281 Z M 300.40625 129.863281 " fill-opacity="1" fill-rule="nonzero"/><path fill="#5e17eb" d="M 300.40625 248.277344 C 300.40625 248.402344 295.785156 248.507812 290.082031 248.507812 C 284.378906 248.507812 279.75 248.402344 279.75 248.277344 C 279.75 248.15625 284.371094 248.046875 290.082031 248.046875 C 295.792969 248.046875 300.40625 248.144531 300.40625 248.277344 Z M 300.40625 248.277344 " fill-opacity="1" fill-rule="nonzero"/><path fill="#5e17eb" d="M 329.171875 147.207031 C 329.171875 147.328125 320.519531 147.4375 309.847656 147.4375 C 299.179688 147.4375 290.523438 147.328125 290.523438 147.207031 C 290.523438 147.082031 299.179688 146.976562 309.847656 146.976562 C 320.519531 146.976562 329.171875 147.039062 329.171875 147.207031 Z M 329.171875 147.207031 " fill-opacity="1" fill-rule="nonzero"/><path fill="#e0e0e0" d="M 373.851562 147.207031 C 373.851562 147.328125 365.203125 147.4375 354.535156 147.4375 C 343.863281 147.4375 335.210938 147.328125 335.210938 147.207031 C 335.210938 147.082031 343.855469 146.976562 354.535156 146.976562 C 365.214844 146.976562 373.851562 147.039062 373.851562 147.207031 Z M 373.851562 147.207031 " fill-opacity="1" fill-rule="nonzero"/><path fill="#e0e0e0" d="M 356.78125 155.625 C 356.78125 155.75 344.023438 155.855469 328.308594 155.855469 C 312.589844 155.855469 299.824219 155.75 299.824219 155.625 C 299.824219 155.503906 312.570312 155.394531 328.308594 155.394531 C 344.042969 155.394531 356.78125 155.503906 356.78125 155.625 Z M 356.78125 155.625 " fill-opacity="1" fill-rule="nonzero"/><path fill="#e0e0e0" d="M 356.78125 164.046875 C 356.78125 164.179688 344.023438 164.273438 328.308594 164.273438 C 312.589844 164.273438 299.859375 164.179688 299.859375 164.046875 C 299.859375 163.914062 312.605469 163.816406 328.34375 163.816406 C 344.078125 163.816406 356.78125 163.921875 356.78125 164.046875 Z M 356.78125 164.046875 " fill-opacity="1" fill-rule="nonzero"/><path fill="#e0e0e0" d="M 395.976562 189.3125 C 395.976562 189.445312 383.230469 189.542969 367.503906 189.542969 C 351.777344 189.542969 339.03125 189.445312 339.03125 189.3125 C 339.03125 189.179688 351.777344 189.082031 367.503906 189.082031 C 383.230469 189.082031 395.976562 189.191406 395.976562 189.3125 Z M 395.976562 189.3125 " fill-opacity="1" fill-rule="nonzero"/><path fill="#e0e0e0" d="M 379.066406 172.472656 C 379.066406 172.597656 366.308594 172.703125 350.59375 172.703125 C 334.875 172.703125 322.109375 172.597656 322.109375 172.472656 C 322.109375 172.351562 334.855469 172.246094 350.59375 172.246094 C 366.328125 172.246094 379.066406 172.339844 379.066406 172.472656 Z M 379.066406 172.472656 " fill-opacity="1" fill-rule="nonzero"/><path fill="#e0e0e0" d="M 448.65625 172.472656 C 448.65625 172.597656 435.90625 172.703125 420.179688 172.703125 C 404.453125 172.703125 391.707031 172.597656 391.707031 172.472656 C 391.707031 172.351562 404.453125 172.246094 420.179688 172.246094 C 435.90625 172.246094 448.65625 172.339844 448.65625 172.472656 Z M 448.65625 172.472656 " fill-opacity="1" fill-rule="nonzero"/><path fill="#fafafa" d="M 424.449219 155.625 C 424.449219 155.75 411.703125 155.855469 395.976562 155.855469 C 380.25 155.855469 367.503906 155.75 367.503906 155.625 C 367.503906 155.503906 380.25 155.394531 395.976562 155.394531 C 411.703125 155.394531 424.449219 155.503906 424.449219 155.625 Z M 424.449219 155.625 " fill-opacity="1" fill-rule="nonzero"/><path fill="#fafafa" d="M 463.796875 189.3125 C 463.796875 189.445312 451.042969 189.542969 435.324219 189.542969 C 419.605469 189.542969 406.824219 189.445312 406.824219 189.3125 C 406.824219 189.179688 419.570312 189.082031 435.304688 189.082031 C 451.042969 189.082031 463.796875 189.191406 463.796875 189.3125 Z M 463.796875 189.3125 " fill-opacity="1" fill-rule="nonzero"/><path fill="#455a64" d="M 455.9375 164.046875 C 455.9375 164.179688 436.136719 164.273438 411.738281 164.273438 C 387.339844 164.273438 367.539062 164.179688 367.539062 164.046875 C 367.539062 163.914062 387.332031 163.816406 411.738281 163.816406 C 436.144531 163.816406 455.9375 163.921875 455.9375 164.046875 Z M 455.9375 164.046875 " fill-opacity="1" fill-rule="nonzero"/><path fill="#fafafa" d="M 300.40625 138.777344 C 300.40625 138.910156 295.785156 139.007812 290.082031 139.007812 C 284.378906 139.007812 279.75 138.910156 279.75 138.777344 C 279.75 138.644531 284.371094 138.546875 290.082031 138.546875 C 295.792969 138.546875 300.40625 138.652344 300.40625 138.777344 Z M 300.40625 138.777344 " fill-opacity="1" fill-rule="nonzero"/><path fill="#fafafa" d="M 300.40625 239.851562 C 300.40625 239.980469 295.785156 240.078125 290.082031 240.078125 C 284.378906 240.078125 279.75 239.980469 279.75 239.851562 C 279.75 239.71875 284.371094 239.621094 290.082031 239.621094 C 295.792969 239.621094 300.40625 239.726562 300.40625 239.851562 Z M 300.40625 239.851562 " fill-opacity="1" fill-rule="nonzero"/><path fill="#fafafa" d="M 310.636719 172.472656 C 310.636719 172.597656 306.011719 172.703125 300.308594 172.703125 C 294.609375 172.703125 289.984375 172.597656 289.984375 172.472656 C 289.984375 172.351562 294.609375 172.246094 300.308594 172.246094 C 306.011719 172.246094 310.636719 172.339844 310.636719 172.472656 Z M 310.636719 172.472656 " fill-opacity="1" fill-rule="nonzero"/><path fill="#5e17eb" d="M 476.171875 172.472656 C 476.171875 172.597656 471.550781 172.703125 465.847656 172.703125 C 460.148438 172.703125 455.523438 172.597656 455.523438 172.472656 C 455.523438 172.351562 460.148438 172.246094 465.847656 172.246094 C 471.550781 172.246094 476.171875 172.339844 476.171875 172.472656 Z M 476.171875 172.472656 " fill-opacity="1" fill-rule="nonzero"/><path fill="#5e17eb" d="M 329.171875 206.109375 C 329.171875 206.242188 320.519531 206.339844 309.847656 206.339844 C 299.179688 206.339844 290.523438 206.242188 290.523438 206.109375 C 290.523438 205.976562 299.179688 205.878906 309.847656 205.878906 C 320.519531 205.878906 329.171875 205.984375 329.171875 206.109375 Z M 329.171875 206.109375 " fill-opacity="1" fill-rule="nonzero"/><path fill="#e0e0e0" d="M 373.851562 206.109375 C 373.851562 206.242188 365.203125 206.339844 354.535156 206.339844 C 343.863281 206.339844 335.21875 206.234375 335.21875 206.109375 C 335.21875 205.984375 343.863281 205.878906 354.542969 205.878906 C 365.222656 205.878906 373.851562 205.984375 373.851562 206.109375 Z M 373.851562 206.109375 " fill-opacity="1" fill-rule="nonzero"/><path fill="#e0e0e0" d="M 356.78125 214.539062 C 356.78125 214.660156 344.023438 214.765625 328.308594 214.765625 C 312.589844 214.765625 299.859375 214.660156 299.859375 214.539062 C 299.859375 214.414062 312.605469 214.308594 328.34375 214.308594 C 344.078125 214.308594 356.78125 214.40625 356.78125 214.539062 Z M 356.78125 214.539062 " fill-opacity="1" fill-rule="nonzero"/><path fill="#e0e0e0" d="M 356.78125 222.957031 C 356.78125 223.082031 344.023438 223.1875 328.308594 223.1875 C 312.589844 223.1875 299.824219 223.082031 299.824219 222.957031 C 299.824219 222.832031 312.570312 222.726562 328.308594 222.726562 C 344.042969 222.726562 356.78125 222.832031 356.78125 222.957031 Z M 356.78125 222.957031 " fill-opacity="1" fill-rule="nonzero"/><path fill="#e0e0e0" d="M 379.066406 231.378906 C 379.066406 231.507812 366.308594 231.605469 350.59375 231.605469 C 334.875 231.605469 322.109375 231.507812 322.109375 231.378906 C 322.109375 231.246094 334.855469 231.148438 350.59375 231.148438 C 366.328125 231.148438 379.066406 231.253906 379.066406 231.378906 Z M 379.066406 231.378906 " fill-opacity="1" fill-rule="nonzero"/><path fill="#e0e0e0" d="M 448.65625 231.378906 C 448.65625 231.507812 435.90625 231.605469 420.179688 231.605469 C 404.453125 231.605469 391.707031 231.507812 391.707031 231.378906 C 391.707031 231.246094 404.453125 231.148438 420.179688 231.148438 C 435.90625 231.148438 448.65625 231.253906 448.65625 231.378906 Z M 448.65625 231.378906 " fill-opacity="1" fill-rule="nonzero"/><path fill="#fafafa" d="M 424.449219 214.539062 C 424.449219 214.660156 411.703125 214.765625 395.976562 214.765625 C 380.25 214.765625 367.503906 214.660156 367.503906 214.539062 C 367.503906 214.414062 380.25 214.308594 395.976562 214.308594 C 411.703125 214.308594 424.449219 214.40625 424.449219 214.539062 Z M 424.449219 214.539062 " fill-opacity="1" fill-rule="nonzero"/><path fill="#455a64" d="M 455.9375 222.957031 C 455.9375 223.082031 436.136719 223.1875 411.738281 223.1875 C 387.339844 223.1875 367.539062 223.082031 367.539062 222.957031 C 367.539062 222.832031 387.332031 222.726562 411.738281 222.726562 C 436.144531 222.726562 455.9375 222.832031 455.9375 222.957031 Z M 455.9375 222.957031 " fill-opacity="1" fill-rule="nonzero"/><path fill="#fafafa" d="M 310.636719 231.378906 C 310.636719 231.507812 306.011719 231.605469 300.308594 231.605469 C 294.609375 231.605469 289.984375 231.507812 289.984375 231.378906 C 289.984375 231.246094 294.609375 231.148438 300.308594 231.148438 C 306.011719 231.148438 310.636719 231.253906 310.636719 231.378906 Z M 310.636719 231.378906 " fill-opacity="1" fill-rule="nonzero"/><path fill="#5e17eb" d="M 476.171875 231.378906 C 476.171875 231.507812 471.550781 231.605469 465.847656 231.605469 C 460.148438 231.605469 455.523438 231.507812 455.523438 231.378906 C 455.523438 231.246094 460.148438 231.148438 465.847656 231.148438 C 471.550781 231.148438 476.171875 231.253906 476.171875 231.378906 Z M 476.171875 231.378906 " fill-opacity="1" fill-rule="nonzero"/><path fill="#5e17eb" d="M 526.738281 257.898438 C 526.570312 257.996094 525.078125 255.515625 522.0625 251.253906 C 520.558594 249.125 518.660156 246.5625 516.296875 243.71875 C 513.636719 240.496094 510.753906 237.492188 507.644531 234.699219 C 505.851562 233.082031 503.949219 231.609375 501.933594 230.28125 C 499.8125 228.832031 497.503906 227.796875 495.011719 227.171875 C 493.773438 226.871094 492.527344 226.855469 491.28125 227.117188 C 490.042969 227.421875 489.03125 228.070312 488.238281 229.070312 C 487.410156 230.144531 486.855469 231.347656 486.570312 232.675781 C 486.230469 234.089844 486.054688 235.523438 486.039062 236.976562 C 486.039062 240.074219 486.375 243.132812 487.046875 246.15625 C 487.726562 249.34375 488.609375 252.472656 489.699219 255.539062 C 494.445312 268.609375 501.296875 280.464844 510.25 291.101562 C 512.363281 293.582031 514.628906 295.917969 517.039062 298.109375 C 519.324219 300.203125 521.808594 302.023438 524.492188 303.578125 C 525.765625 304.285156 527.097656 304.851562 528.488281 305.273438 C 529.78125 305.683594 531.101562 305.800781 532.449219 305.625 C 533.710938 305.441406 534.78125 304.882812 535.65625 303.957031 C 536.511719 303.015625 537.121094 301.933594 537.480469 300.714844 C 538.183594 298.246094 538.4375 295.730469 538.238281 293.167969 C 538.109375 290.761719 537.792969 288.378906 537.292969 286.019531 C 536.417969 281.933594 535.238281 277.933594 533.757812 274.023438 C 532.476562 270.558594 531.203125 267.636719 530.113281 265.269531 C 527.933594 260.523438 526.527344 257.996094 526.695312 257.898438 C 527.179688 258.417969 527.59375 258.988281 527.933594 259.613281 C 528.65625 260.789062 529.699219 262.546875 530.917969 264.871094 C 532.140625 267.195312 533.570312 270.09375 534.960938 273.554688 C 536.578125 277.496094 537.871094 281.539062 538.839844 285.6875 C 539.410156 288.117188 539.785156 290.574219 539.972656 293.0625 C 540.226562 295.847656 539.988281 298.589844 539.253906 301.289062 C 538.824219 302.796875 538.085938 304.136719 537.046875 305.308594 C 535.878906 306.574219 534.441406 307.34375 532.742188 307.613281 C 531.097656 307.863281 529.480469 307.75 527.886719 307.269531 C 526.347656 306.820312 524.871094 306.207031 523.46875 305.433594 C 520.621094 303.832031 517.988281 301.941406 515.566406 299.75 C 513.046875 297.511719 510.691406 295.117188 508.492188 292.566406 C 503.9375 287.210938 499.898438 281.492188 496.378906 275.402344 C 492.855469 269.316406 489.910156 262.964844 487.542969 256.34375 C 486.441406 253.164062 485.554688 249.925781 484.890625 246.625 C 484.199219 243.421875 483.875 240.183594 483.910156 236.90625 C 483.941406 235.296875 484.15625 233.710938 484.546875 232.144531 C 484.921875 230.515625 485.628906 229.042969 486.667969 227.726562 C 487.757812 226.398438 489.144531 225.539062 490.820312 225.15625 C 492.359375 224.839844 493.894531 224.871094 495.417969 225.253906 C 498.121094 225.96875 500.613281 227.132812 502.898438 228.742188 C 504.960938 230.152344 506.902344 231.707031 508.730469 233.410156 C 511.851562 236.347656 514.714844 239.515625 517.324219 242.914062 C 519.621094 245.875 521.425781 248.535156 522.832031 250.753906 C 524.238281 252.96875 525.246094 254.753906 525.890625 255.972656 C 526.257812 256.578125 526.539062 257.21875 526.738281 257.898438 Z M 526.738281 257.898438 " fill-opacity="1" fill-rule="nonzero"/><path fill="#5e17eb" d="M 499.441406 257.847656 C 499.597656 257.945312 498.167969 260.355469 495.90625 264.914062 C 494.789062 267.175781 493.480469 269.976562 492.164062 273.300781 C 490.660156 277.050781 489.460938 280.894531 488.566406 284.835938 C 488.050781 287.109375 487.722656 289.40625 487.578125 291.730469 C 487.367188 294.199219 487.605469 296.625 488.285156 299.007812 C 488.640625 300.191406 489.230469 301.242188 490.050781 302.164062 C 490.894531 303.0625 491.921875 303.632812 493.128906 303.878906 C 494.417969 304.128906 495.699219 304.09375 496.972656 303.769531 C 498.34375 303.453125 499.65625 302.984375 500.917969 302.355469 C 503.589844 301.011719 506.074219 299.375 508.367188 297.453125 C 510.796875 295.445312 513.074219 293.285156 515.210938 290.96875 C 519.703125 286.039062 523.703125 280.738281 527.214844 275.066406 C 530.726562 269.398438 533.6875 263.453125 536.101562 257.238281 C 537.222656 254.292969 538.136719 251.285156 538.847656 248.214844 C 539.546875 245.3125 539.902344 242.367188 539.917969 239.382812 C 539.914062 237.976562 539.75 236.59375 539.421875 235.230469 C 539.140625 233.945312 538.601562 232.78125 537.804688 231.738281 C 537.046875 230.765625 536.074219 230.105469 534.890625 229.75 C 533.699219 229.433594 532.496094 229.378906 531.28125 229.59375 C 528.847656 230.046875 526.566406 230.914062 524.449219 232.199219 C 522.4375 233.371094 520.527344 234.695312 518.71875 236.164062 C 515.59375 238.726562 512.683594 241.515625 509.996094 244.53125 C 507.609375 247.183594 505.679688 249.613281 504.152344 251.601562 C 501.09375 255.613281 499.574219 257.96875 499.414062 257.875 C 499.613281 257.210938 499.910156 256.597656 500.296875 256.027344 C 500.960938 254.871094 501.976562 253.171875 503.417969 251.078125 C 505.160156 248.519531 507.023438 246.050781 509.015625 243.675781 C 511.652344 240.503906 514.542969 237.574219 517.675781 234.894531 C 519.515625 233.316406 521.46875 231.902344 523.539062 230.652344 C 525.835938 229.207031 528.316406 228.214844 530.980469 227.683594 C 532.464844 227.417969 533.941406 227.46875 535.402344 227.84375 C 536.992188 228.292969 538.304688 229.164062 539.34375 230.449219 C 540.339844 231.710938 541.027344 233.125 541.402344 234.691406 C 541.78125 236.210938 541.980469 237.753906 542.003906 239.320312 C 542.042969 242.464844 541.714844 245.570312 541.023438 248.640625 C 540.308594 251.816406 539.382812 254.925781 538.238281 257.96875 C 535.800781 264.335938 532.785156 270.414062 529.195312 276.207031 C 525.605469 282 521.503906 287.40625 516.890625 292.425781 C 514.6875 294.808594 512.328125 297.03125 509.820312 299.089844 C 507.367188 301.101562 504.714844 302.804688 501.863281 304.195312 C 500.449219 304.875 498.976562 305.386719 497.441406 305.722656 C 495.875 306.089844 494.304688 306.109375 492.730469 305.777344 C 491.117188 305.421875 489.753906 304.636719 488.636719 303.417969 C 487.640625 302.273438 486.929688 300.96875 486.507812 299.511719 C 485.800781 296.902344 485.578125 294.253906 485.84375 291.5625 C 486.042969 289.148438 486.4375 286.769531 487.027344 284.421875 C 488.03125 280.417969 489.363281 276.527344 491.023438 272.75 C 492.261719 269.914062 493.636719 267.144531 495.152344 264.445312 C 496.390625 262.21875 497.453125 260.558594 498.195312 259.445312 C 498.9375 258.332031 499.371094 257.800781 499.441406 257.847656 Z M 499.441406 257.847656 " fill-opacity="1" fill-rule="nonzero"/><path fill="#5e17eb" d="M 511.347656 247.675781 C 511.347656 247.871094 508.535156 247.917969 503.507812 248.402344 C 500.996094 248.648438 497.929688 249.019531 494.410156 249.640625 C 490.425781 250.339844 486.523438 251.347656 482.699219 252.660156 C 480.496094 253.421875 478.371094 254.347656 476.316406 255.445312 C 474.101562 256.558594 472.160156 258.03125 470.488281 259.859375 C 469.671875 260.78125 469.082031 261.828125 468.722656 263.007812 C 468.402344 264.199219 468.457031 265.378906 468.878906 266.539062 C 469.351562 267.765625 470.054688 268.835938 470.992188 269.757812 C 471.988281 270.746094 473.082031 271.613281 474.273438 272.355469 C 476.824219 273.917969 479.519531 275.167969 482.363281 276.109375 C 485.351562 277.117188 488.394531 277.917969 491.492188 278.511719 C 498.050781 279.738281 504.664062 280.347656 511.335938 280.347656 C 518.003906 280.347656 524.617188 279.738281 531.175781 278.511719 C 534.273438 277.921875 537.320312 277.125 540.308594 276.117188 C 543.152344 275.179688 545.851562 273.929688 548.40625 272.363281 C 549.597656 271.621094 550.691406 270.753906 551.683594 269.765625 C 552.621094 268.847656 553.328125 267.773438 553.796875 266.550781 C 554.222656 265.386719 554.277344 264.210938 553.957031 263.015625 C 553.597656 261.835938 553.007812 260.789062 552.1875 259.871094 C 550.515625 258.039062 548.574219 256.566406 546.363281 255.453125 C 544.3125 254.347656 542.183594 253.421875 539.980469 252.667969 C 536.15625 251.355469 532.25 250.351562 528.269531 249.648438 C 524.730469 249.027344 521.683594 248.660156 519.171875 248.410156 C 514.140625 247.925781 511.332031 247.878906 511.339844 247.6875 C 512.007812 247.511719 512.683594 247.441406 513.371094 247.472656 C 514.707031 247.429688 516.6875 247.402344 519.234375 247.519531 C 521.777344 247.632812 524.882812 247.871094 528.472656 248.402344 C 532.558594 248.976562 536.570312 249.886719 540.503906 251.140625 C 542.808594 251.878906 545.039062 252.796875 547.195312 253.898438 C 549.636719 255.085938 551.785156 256.675781 553.636719 258.660156 C 554.65625 259.785156 555.390625 261.070312 555.839844 262.519531 C 556.289062 264.109375 556.242188 265.679688 555.699219 267.238281 C 555.148438 268.753906 554.308594 270.082031 553.167969 271.222656 C 552.078125 272.347656 550.871094 273.328125 549.546875 274.164062 C 546.863281 275.851562 544.023438 277.203125 541.023438 278.21875 C 537.949219 279.285156 534.8125 280.128906 531.617188 280.753906 C 524.917969 282.039062 518.15625 282.683594 511.335938 282.683594 C 504.511719 282.683594 497.75 282.039062 491.050781 280.753906 C 487.855469 280.128906 484.722656 279.285156 481.644531 278.21875 C 478.644531 277.203125 475.804688 275.851562 473.125 274.164062 C 471.800781 273.328125 470.589844 272.347656 469.5 271.222656 C 468.359375 270.082031 467.519531 268.753906 466.972656 267.238281 C 466.425781 265.679688 466.378906 264.109375 466.828125 262.519531 C 467.28125 261.074219 468.015625 259.785156 469.03125 258.660156 C 470.886719 256.675781 473.03125 255.085938 475.476562 253.898438 C 477.628906 252.796875 479.859375 251.878906 482.167969 251.148438 C 486.097656 249.890625 490.109375 248.972656 494.199219 248.402344 C 497.789062 247.890625 500.898438 247.652344 503.4375 247.519531 C 505.972656 247.386719 507.960938 247.429688 509.296875 247.472656 C 509.992188 247.441406 510.675781 247.507812 511.347656 247.675781 Z M 511.347656 247.675781 " fill-opacity="1" fill-rule="nonzero"/><path fill="#5e17eb" d="M 514.707031 259.253906 C 515.1875 259.332031 515.652344 259.457031 516.109375 259.625 C 516.5625 259.796875 516.996094 260.007812 517.410156 260.265625 C 517.824219 260.519531 518.207031 260.8125 518.5625 261.144531 C 518.917969 261.476562 519.238281 261.839844 519.523438 262.230469 C 519.804688 262.625 520.050781 263.042969 520.25 263.484375 C 520.453125 263.925781 520.609375 264.386719 520.71875 264.859375 C 520.832031 265.328125 520.894531 265.808594 520.914062 266.292969 C 520.929688 266.78125 520.898438 267.261719 520.820312 267.742188 C 520.742188 268.21875 520.621094 268.6875 520.449219 269.140625 C 520.28125 269.597656 520.066406 270.03125 519.8125 270.445312 C 519.554688 270.855469 519.261719 271.242188 518.929688 271.597656 C 518.597656 271.953125 518.238281 272.269531 517.84375 272.554688 C 517.449219 272.839844 517.03125 273.082031 516.589844 273.28125 C 516.144531 273.484375 515.6875 273.640625 515.214844 273.75 C 514.742188 273.863281 514.261719 273.925781 513.777344 273.945312 C 513.292969 273.960938 512.808594 273.929688 512.332031 273.851562 C 511.851562 273.773438 511.382812 273.652344 510.929688 273.480469 C 510.472656 273.3125 510.039062 273.097656 509.625 272.84375 C 509.214844 272.585938 508.828125 272.292969 508.472656 271.960938 C 508.117188 271.632812 507.796875 271.269531 507.515625 270.875 C 507.230469 270.480469 506.988281 270.0625 506.785156 269.621094 C 506.585938 269.179688 506.429688 268.722656 506.316406 268.25 C 506.207031 267.777344 506.140625 267.296875 506.125 266.8125 C 506.105469 266.328125 506.136719 265.84375 506.214844 265.367188 C 506.292969 264.886719 506.417969 264.417969 506.585938 263.964844 C 506.757812 263.511719 506.96875 263.078125 507.226562 262.664062 C 507.480469 262.25 507.773438 261.867188 508.105469 261.511719 C 508.4375 261.15625 508.800781 260.835938 509.195312 260.554688 C 509.589844 260.269531 510.007812 260.027344 510.449219 259.824219 C 510.890625 259.625 511.347656 259.46875 511.820312 259.355469 C 512.292969 259.246094 512.773438 259.179688 513.257812 259.164062 C 513.746094 259.144531 514.226562 259.175781 514.707031 259.253906 Z M 514.707031 259.253906 " fill-opacity="1" fill-rule="nonzero"/><path fill="#455a64" d="M 128.480469 189.859375 L 391.425781 189.859375 C 391.816406 189.859375 392.203125 189.898438 392.585938 189.976562 C 392.96875 190.050781 393.34375 190.164062 393.703125 190.316406 C 394.066406 190.464844 394.410156 190.648438 394.734375 190.863281 C 395.058594 191.082031 395.359375 191.328125 395.636719 191.605469 C 395.914062 191.882812 396.160156 192.183594 396.378906 192.507812 C 396.59375 192.832031 396.777344 193.175781 396.929688 193.539062 C 397.078125 193.898438 397.191406 194.269531 397.269531 194.65625 C 397.34375 195.039062 397.382812 195.425781 397.382812 195.816406 L 397.382812 359.261719 C 397.382812 360.109375 397.300781 360.945312 397.136719 361.773438 C 396.96875 362.605469 396.726562 363.410156 396.402344 364.191406 C 396.078125 364.96875 395.683594 365.710938 395.210938 366.414062 C 394.742188 367.117188 394.207031 367.769531 393.609375 368.367188 C 393.011719 368.964844 392.363281 369.496094 391.660156 369.964844 C 390.957031 370.4375 390.210938 370.832031 389.429688 371.15625 C 388.648438 371.480469 387.84375 371.722656 387.015625 371.890625 C 386.1875 372.054688 385.347656 372.136719 384.503906 372.136719 L 134.507812 372.136719 C 133.660156 372.136719 132.824219 372.054688 131.996094 371.890625 C 131.164062 371.722656 130.359375 371.480469 129.578125 371.15625 C 128.796875 370.832031 128.054688 370.4375 127.351562 369.964844 C 126.648438 369.496094 125.996094 368.964844 125.398438 368.367188 C 124.800781 367.769531 124.269531 367.117188 123.796875 366.414062 C 123.328125 365.710938 122.929688 364.96875 122.609375 364.191406 C 122.285156 363.410156 122.039062 362.605469 121.875 361.773438 C 121.710938 360.945312 121.628906 360.109375 121.628906 359.261719 L 121.628906 196.699219 C 121.628906 196.25 121.671875 195.804688 121.761719 195.363281 C 121.847656 194.925781 121.980469 194.496094 122.152344 194.082031 C 122.324219 193.667969 122.535156 193.273438 122.785156 192.898438 C 123.035156 192.527344 123.320312 192.179688 123.636719 191.863281 C 123.957031 191.546875 124.300781 191.261719 124.675781 191.011719 C 125.050781 190.765625 125.445312 190.554688 125.859375 190.382812 C 126.273438 190.210938 126.703125 190.082031 127.144531 189.992188 C 127.582031 189.90625 128.027344 189.859375 128.480469 189.859375 Z M 128.480469 189.859375 " fill-opacity="1" fill-rule="nonzero"/><g clip-path="url(#9d6ab2039b)"><path fill="#455a64" d="M 110.101562 358.636719 L 408.890625 358.636719 L 408.890625 362.460938 C 408.890625 363.257812 408.816406 364.046875 408.660156 364.828125 C 408.503906 365.605469 408.273438 366.363281 407.96875 367.101562 C 407.664062 367.835938 407.289062 368.535156 406.847656 369.195312 C 406.40625 369.859375 405.902344 370.46875 405.339844 371.03125 C 404.777344 371.597656 404.164062 372.097656 403.5 372.539062 C 402.839844 372.984375 402.140625 373.355469 401.40625 373.660156 C 400.667969 373.964844 399.910156 374.195312 399.128906 374.351562 C 398.347656 374.503906 397.558594 374.582031 396.765625 374.582031 L 122.230469 374.582031 C 121.433594 374.582031 120.644531 374.503906 119.863281 374.351562 C 119.082031 374.195312 118.324219 373.964844 117.585938 373.660156 C 116.851562 373.355469 116.152344 372.984375 115.492188 372.539062 C 114.828125 372.097656 114.214844 371.597656 113.652344 371.03125 C 113.089844 370.46875 112.585938 369.859375 112.144531 369.195312 C 111.703125 368.535156 111.328125 367.835938 111.023438 367.101562 C 110.71875 366.363281 110.488281 365.605469 110.332031 364.828125 C 110.179688 364.046875 110.101562 363.257812 110.101562 362.460938 Z M 110.101562 358.636719 " fill-opacity="1" fill-rule="nonzero"/></g><path fill="#e0e0e0" d="M 129.027344 197.105469 L 389.207031 197.105469 L 389.207031 351.011719 L 129.027344 351.011719 Z M 129.027344 197.105469 " fill-opacity="1" fill-rule="nonzero"/><path fill="#263238" d="M 232.320312 358.636719 L 236.027344 364.527344 L 288.191406 364.527344 L 291.636719 358.636719 Z M 232.320312 358.636719 " fill-opacity="1" fill-rule="nonzero"/><path fill="#263238" d="M 121.671875 358.574219 L 397.425781 358.574219 L 397.425781 359.449219 L 121.671875 359.449219 Z M 121.671875 358.574219 " fill-opacity="1" fill-rule="nonzero"/><path fill="#263238" d="M 136.753906 206.019531 L 382.117188 206.019531 L 382.117188 351.011719 L 136.753906 351.011719 Z M 136.753906 206.019531 " fill-opacity="1" fill-rule="nonzero"/><path fill="#e0e0e0" d="M 155.574219 346.753906 C 155.449219 346.753906 155.34375 315.875 155.34375 277.789062 C 155.34375 239.699219 155.449219 208.820312 155.574219 208.820312 C 155.695312 208.820312 155.769531 239.691406 155.769531 277.796875 C 155.769531 315.902344 155.695312 346.753906 155.574219 346.753906 Z M 155.574219 346.753906 " fill-opacity="1" fill-rule="nonzero"/><path fill="#e0e0e0" d="M 150.621094 221.324219 C 149.304688 221.554688 147.972656 221.632812 146.636719 221.550781 C 145.296875 221.632812 143.96875 221.554688 142.648438 221.324219 C 145.300781 221.015625 147.953125 221.015625 150.605469 221.324219 Z M 150.621094 221.324219 " fill-opacity="1" fill-rule="nonzero"/><path fill="#e0e0e0" d="M 150.933594 213.496094 C 149.613281 213.726562 148.285156 213.804688 146.945312 213.726562 C 145.605469 213.804688 144.277344 213.726562 142.957031 213.496094 C 145.609375 213.1875 148.261719 213.1875 150.914062 213.496094 Z M 150.933594 213.496094 " fill-opacity="1" fill-rule="nonzero"/><path fill="#e0e0e0" d="M 150.621094 229.761719 C 147.972656 230.066406 145.320312 230.066406 142.667969 229.761719 C 145.320312 229.453125 147.972656 229.453125 150.621094 229.761719 Z M 150.621094 229.761719 " fill-opacity="1" fill-rule="nonzero"/><path fill="#e0e0e0" d="M 150.621094 238.199219 C 147.972656 238.503906 145.320312 238.503906 142.667969 238.199219 C 143.988281 237.964844 145.316406 237.886719 146.652344 237.96875 C 147.984375 237.890625 149.308594 237.964844 150.621094 238.199219 Z M 150.621094 238.199219 " fill-opacity="1" fill-rule="nonzero"/><path fill="#e0e0e0" d="M 150.621094 246.636719 C 147.972656 246.941406 145.320312 246.941406 142.667969 246.636719 C 143.988281 246.402344 145.316406 246.324219 146.652344 246.40625 C 147.984375 246.328125 149.308594 246.402344 150.621094 246.636719 Z M 150.621094 246.636719 " fill-opacity="1" fill-rule="nonzero"/><path fill="#e0e0e0" d="M 150.621094 255.074219 C 147.972656 255.378906 145.320312 255.378906 142.667969 255.074219 C 143.988281 254.839844 145.316406 254.761719 146.652344 254.84375 C 147.984375 254.765625 149.308594 254.839844 150.621094 255.074219 Z M 150.621094 255.074219 " fill-opacity="1" fill-rule="nonzero"/><path fill="#e0e0e0" d="M 150.621094 263.5 C 149.304688 263.738281 147.972656 263.820312 146.636719 263.738281 C 145.296875 263.820312 143.96875 263.738281 142.648438 263.5 C 145.300781 263.195312 147.953125 263.195312 150.605469 263.5 Z M 150.621094 263.5 " fill-opacity="1" fill-rule="nonzero"/><path fill="#e0e0e0" d="M 150.621094 271.9375 C 149.304688 272.171875 147.972656 272.246094 146.636719 272.167969 C 145.296875 272.246094 143.96875 272.171875 142.648438 271.9375 C 145.300781 271.632812 147.953125 271.632812 150.605469 271.9375 Z M 150.621094 271.9375 " fill-opacity="1" fill-rule="nonzero"/><path fill="#e0e0e0" d="M 150.621094 280.375 C 149.304688 280.609375 147.972656 280.683594 146.636719 280.605469 C 145.296875 280.683594 143.96875 280.609375 142.648438 280.375 C 145.300781 280.070312 147.953125 280.070312 150.605469 280.375 Z M 150.621094 280.375 " fill-opacity="1" fill-rule="nonzero"/><path fill="#e0e0e0" d="M 150.621094 288.8125 C 149.304688 289.046875 147.972656 289.121094 146.636719 289.042969 C 145.296875 289.121094 143.96875 289.046875 142.648438 288.8125 C 145.300781 288.507812 147.953125 288.507812 150.605469 288.8125 Z M 150.621094 288.8125 " fill-opacity="1" fill-rule="nonzero"/><path fill="#e0e0e0" d="M 150.621094 297.234375 C 147.972656 297.539062 145.320312 297.539062 142.667969 297.234375 C 145.320312 296.925781 147.972656 296.925781 150.621094 297.234375 Z M 150.621094 297.234375 " fill-opacity="1" fill-rule="nonzero"/><path fill="#e0e0e0" d="M 150.621094 305.6875 C 147.972656 305.992188 145.320312 305.992188 142.667969 305.6875 C 143.988281 305.457031 145.316406 305.378906 146.652344 305.457031 C 147.984375 305.378906 149.308594 305.457031 150.621094 305.6875 Z M 150.621094 305.6875 " fill-opacity="1" fill-rule="nonzero"/><path fill="#e0e0e0" d="M 150.621094 314.125 C 147.972656 314.429688 145.320312 314.429688 142.667969 314.125 C 143.988281 313.894531 145.316406 313.816406 146.652344 313.894531 C 147.984375 313.816406 149.308594 313.894531 150.621094 314.125 Z M 150.621094 314.125 " fill-opacity="1" fill-rule="nonzero"/><path fill="#e0e0e0" d="M 150.621094 322.5625 C 147.972656 322.867188 145.320312 322.867188 142.667969 322.5625 C 143.988281 322.332031 145.316406 322.253906 146.652344 322.332031 C 147.984375 322.253906 149.308594 322.332031 150.621094 322.5625 Z M 150.621094 322.5625 " fill-opacity="1" fill-rule="nonzero"/><path fill="#e0e0e0" d="M 150.621094 331 C 147.972656 331.304688 145.320312 331.304688 142.667969 331 C 143.984375 330.761719 145.316406 330.683594 146.652344 330.761719 C 147.984375 330.683594 149.308594 330.761719 150.621094 331 Z M 150.621094 331 " fill-opacity="1" fill-rule="nonzero"/><path fill="#e0e0e0" d="M 150.621094 339.429688 C 149.304688 339.660156 147.972656 339.738281 146.636719 339.660156 C 145.296875 339.738281 143.96875 339.660156 142.648438 339.429688 C 145.300781 339.125 147.953125 339.125 150.605469 339.429688 Z M 150.621094 339.429688 " fill-opacity="1" fill-rule="nonzero"/><path fill="#5e17eb" d="M 182.578125 220.828125 C 182.578125 220.953125 177.945312 221.058594 172.238281 221.058594 C 166.527344 221.058594 161.886719 220.953125 161.886719 220.828125 C 161.886719 220.703125 166.515625 220.597656 172.238281 220.597656 C 177.957031 220.597656 182.578125 220.695312 182.578125 220.828125 Z M 182.578125 220.828125 " fill-opacity="1" fill-rule="nonzero"/><path fill="#5e17eb" d="M 182.578125 339.429688 C 182.578125 339.5625 177.945312 339.660156 172.238281 339.660156 C 166.527344 339.660156 161.886719 339.5625 161.886719 339.429688 C 161.886719 339.296875 166.515625 339.199219 172.238281 339.199219 C 177.957031 339.199219 182.578125 339.304688 182.578125 339.429688 Z M 182.578125 339.429688 " fill-opacity="1" fill-rule="nonzero"/><path fill="#5e17eb" d="M 211.390625 238.199219 C 211.390625 238.320312 202.71875 238.425781 192.03125 238.425781 C 181.339844 238.425781 172.679688 238.320312 172.679688 238.199219 C 172.679688 238.074219 181.339844 237.96875 192.03125 237.96875 C 202.71875 237.96875 211.390625 238.039062 211.390625 238.199219 Z M 211.390625 238.199219 " fill-opacity="1" fill-rule="nonzero"/><path fill="#e0e0e0" d="M 256.144531 238.199219 C 256.144531 238.320312 247.472656 238.425781 236.785156 238.425781 C 226.097656 238.425781 217.433594 238.320312 217.433594 238.199219 C 217.433594 238.074219 226.097656 237.96875 236.785156 237.96875 C 247.472656 237.96875 256.144531 238.039062 256.144531 238.199219 Z M 256.144531 238.199219 " fill-opacity="1" fill-rule="nonzero"/><path fill="#e0e0e0" d="M 239.039062 246.636719 C 239.039062 246.757812 226.265625 246.863281 210.515625 246.863281 C 194.761719 246.863281 181.996094 246.757812 181.996094 246.636719 C 181.996094 246.511719 194.761719 246.40625 210.515625 246.40625 C 226.265625 246.40625 239.039062 246.503906 239.039062 246.636719 Z M 239.039062 246.636719 " fill-opacity="1" fill-rule="nonzero"/><path fill="#e0e0e0" d="M 239.039062 255.074219 C 239.039062 255.195312 226.265625 255.300781 210.515625 255.300781 C 194.761719 255.300781 181.996094 255.195312 181.996094 255.074219 C 181.996094 254.949219 194.761719 254.84375 210.515625 254.84375 C 226.265625 254.84375 239.039062 254.941406 239.039062 255.074219 Z M 239.039062 255.074219 " fill-opacity="1" fill-rule="nonzero"/><path fill="#e0e0e0" d="M 278.300781 280.375 C 278.300781 280.507812 265.535156 280.605469 249.78125 280.605469 C 234.027344 280.605469 221.253906 280.507812 221.253906 280.375 C 221.253906 280.242188 234.027344 280.144531 249.78125 280.144531 C 265.535156 280.144531 278.300781 280.253906 278.300781 280.375 Z M 278.300781 280.375 " fill-opacity="1" fill-rule="nonzero"/><path fill="#e0e0e0" d="M 261.363281 263.5 C 261.363281 263.632812 248.585938 263.738281 232.835938 263.738281 C 217.082031 263.738281 204.316406 263.632812 204.316406 263.5 C 204.316406 263.367188 217.082031 263.269531 232.835938 263.269531 C 248.585938 263.269531 261.363281 263.378906 261.363281 263.5 Z M 261.363281 263.5 " fill-opacity="1" fill-rule="nonzero"/><path fill="#e0e0e0" d="M 331.066406 263.5 C 331.066406 263.632812 318.292969 263.738281 302.546875 263.738281 C 286.804688 263.738281 274.019531 263.632812 274.019531 263.5 C 274.019531 263.367188 286.792969 263.269531 302.546875 263.269531 C 318.300781 263.269531 331.066406 263.378906 331.066406 263.5 Z M 331.066406 263.5 " fill-opacity="1" fill-rule="nonzero"/><path fill="#fafafa" d="M 306.824219 246.636719 C 306.824219 246.757812 294.050781 246.863281 278.300781 246.863281 C 262.546875 246.863281 249.78125 246.757812 249.78125 246.636719 C 249.78125 246.511719 262.546875 246.40625 278.300781 246.40625 C 294.050781 246.40625 306.824219 246.503906 306.824219 246.636719 Z M 306.824219 246.636719 " fill-opacity="1" fill-rule="nonzero"/><path fill="#fafafa" d="M 346.226562 280.375 C 346.226562 280.507812 333.453125 280.605469 317.707031 280.605469 C 301.964844 280.605469 289.179688 280.507812 289.179688 280.375 C 289.179688 280.242188 301.953125 280.144531 317.707031 280.144531 C 333.460938 280.144531 346.226562 280.253906 346.226562 280.375 Z M 346.226562 280.375 " fill-opacity="1" fill-rule="nonzero"/><path fill="#455a64" d="M 338.359375 255.074219 C 338.359375 255.195312 318.53125 255.300781 294.070312 255.300781 C 269.609375 255.300781 249.78125 255.195312 249.78125 255.074219 C 249.78125 254.949219 269.609375 254.84375 294.070312 254.84375 C 318.53125 254.84375 338.359375 254.941406 338.359375 255.074219 Z M 338.359375 255.074219 " fill-opacity="1" fill-rule="nonzero"/><path fill="#fafafa" d="M 182.578125 229.761719 C 182.578125 229.882812 177.945312 229.988281 172.238281 229.988281 C 166.527344 229.988281 161.886719 229.882812 161.886719 229.761719 C 161.886719 229.636719 166.515625 229.53125 172.238281 229.53125 C 177.957031 229.53125 182.578125 229.636719 182.578125 229.761719 Z M 182.578125 229.761719 " fill-opacity="1" fill-rule="nonzero"/><path fill="#fafafa" d="M 182.578125 331 C 182.578125 331.125 177.945312 331.230469 172.238281 331.230469 C 166.527344 331.230469 161.886719 331.125 161.886719 331 C 161.886719 330.875 166.515625 330.761719 172.238281 330.761719 C 177.957031 330.761719 182.578125 330.867188 182.578125 331 Z M 182.578125 331 " fill-opacity="1" fill-rule="nonzero"/><path fill="#fafafa" d="M 192.824219 263.5 C 192.824219 263.632812 188.191406 263.738281 182.480469 263.738281 C 176.769531 263.738281 172.140625 263.632812 172.140625 263.5 C 172.140625 263.367188 176.761719 263.269531 182.480469 263.269531 C 188.203125 263.269531 192.824219 263.378906 192.824219 263.5 Z M 192.824219 263.5 " fill-opacity="1" fill-rule="nonzero"/><path fill="#5e17eb" d="M 358.628906 263.5 C 358.628906 263.632812 353.996094 263.738281 348.285156 263.738281 C 342.574219 263.738281 337.941406 263.632812 337.941406 263.5 C 337.941406 263.367188 342.566406 263.269531 348.285156 263.269531 C 354.003906 263.269531 358.628906 263.378906 358.628906 263.5 Z M 358.628906 263.5 " fill-opacity="1" fill-rule="nonzero"/><path fill="#5e17eb" d="M 211.390625 297.234375 C 211.390625 297.367188 202.71875 297.460938 192.03125 297.460938 C 181.339844 297.460938 172.679688 297.367188 172.679688 297.234375 C 172.679688 297.101562 181.339844 297.003906 192.03125 297.003906 C 202.71875 297.003906 211.390625 297.074219 211.390625 297.234375 Z M 211.390625 297.234375 " fill-opacity="1" fill-rule="nonzero"/><path fill="#e0e0e0" d="M 256.144531 297.234375 C 256.144531 297.367188 247.472656 297.460938 236.785156 297.460938 C 226.097656 297.460938 217.433594 297.367188 217.433594 297.234375 C 217.433594 297.101562 226.097656 297.003906 236.785156 297.003906 C 247.472656 297.003906 256.144531 297.074219 256.144531 297.234375 Z M 256.144531 297.234375 " fill-opacity="1" fill-rule="nonzero"/><path fill="#e0e0e0" d="M 239.039062 305.636719 C 239.039062 305.769531 226.265625 305.863281 210.515625 305.863281 C 194.761719 305.863281 181.996094 305.769531 181.996094 305.636719 C 181.996094 305.503906 194.761719 305.40625 210.515625 305.40625 C 226.265625 305.40625 239.039062 305.511719 239.039062 305.636719 Z M 239.039062 305.636719 " fill-opacity="1" fill-rule="nonzero"/><path fill="#e0e0e0" d="M 239.039062 314.074219 C 239.039062 314.207031 226.265625 314.300781 210.515625 314.300781 C 194.761719 314.300781 181.996094 314.207031 181.996094 314.074219 C 181.996094 313.941406 194.761719 313.84375 210.515625 313.84375 C 226.265625 313.84375 239.039062 313.949219 239.039062 314.074219 Z M 239.039062 314.074219 " fill-opacity="1" fill-rule="nonzero"/><path fill="#e0e0e0" d="M 261.363281 322.511719 C 261.363281 322.632812 248.585938 322.738281 232.835938 322.738281 C 217.082031 322.738281 204.316406 322.632812 204.316406 322.511719 C 204.316406 322.386719 217.082031 322.28125 232.835938 322.28125 C 248.585938 322.28125 261.363281 322.386719 261.363281 322.511719 Z M 261.363281 322.511719 " fill-opacity="1" fill-rule="nonzero"/><path fill="#e0e0e0" d="M 331.066406 322.511719 C 331.066406 322.632812 318.292969 322.738281 302.546875 322.738281 C 286.804688 322.738281 274.019531 322.632812 274.019531 322.511719 C 274.019531 322.386719 286.792969 322.28125 302.546875 322.28125 C 318.300781 322.28125 331.066406 322.386719 331.066406 322.511719 Z M 331.066406 322.511719 " fill-opacity="1" fill-rule="nonzero"/><path fill="#fafafa" d="M 306.824219 305.636719 C 306.824219 305.769531 294.050781 305.863281 278.300781 305.863281 C 262.546875 305.863281 249.78125 305.769531 249.78125 305.636719 C 249.78125 305.503906 262.546875 305.40625 278.300781 305.40625 C 294.050781 305.40625 306.824219 305.511719 306.824219 305.636719 Z M 306.824219 305.636719 " fill-opacity="1" fill-rule="nonzero"/><path fill="#455a64" d="M 338.359375 314.074219 C 338.359375 314.207031 318.53125 314.300781 294.070312 314.300781 C 269.609375 314.300781 249.78125 314.207031 249.78125 314.074219 C 249.78125 313.941406 269.609375 313.84375 294.070312 313.84375 C 318.53125 313.84375 338.359375 313.949219 338.359375 314.074219 Z M 338.359375 314.074219 " fill-opacity="1" fill-rule="nonzero"/><path fill="#fafafa" d="M 192.824219 322.511719 C 192.824219 322.632812 188.191406 322.738281 182.480469 322.738281 C 176.769531 322.738281 172.140625 322.632812 172.140625 322.511719 C 172.140625 322.386719 176.761719 322.28125 182.480469 322.28125 C 188.203125 322.28125 192.824219 322.386719 192.824219 322.511719 Z M 192.824219 322.511719 " fill-opacity="1" fill-rule="nonzero"/><path fill="#5e17eb" d="M 358.628906 322.511719 C 358.628906 322.632812 353.996094 322.738281 348.285156 322.738281 C 342.574219 322.738281 337.941406 322.632812 337.941406 322.511719 C 337.941406 322.386719 342.566406 322.28125 348.285156 322.28125 C 354.003906 322.28125 358.628906 322.386719 358.628906 322.511719 Z M 358.628906 322.511719 " fill-opacity="1" fill-rule="nonzero"/><g clip-path="url(#efbb2d433c)"><path fill="#263238" d="M 568.96875 374.59375 C 568.96875 374.714844 440.160156 374.820312 281.3125 374.820312 C 122.46875 374.820312 -6.375 374.714844 -6.375 374.59375 C -6.375 374.46875 122.40625 374.363281 281.3125 374.363281 C 440.222656 374.363281 568.96875 374.460938 568.96875 374.59375 Z M 568.96875 374.59375 " fill-opacity="1" fill-rule="nonzero"/></g></svg>