<svg xmlns="http://www.w3.org/2000/svg" xmlns:xlink="http://www.w3.org/1999/xlink" width="750" zoomAndPan="magnify" viewBox="0 0 562.5 374.999991" height="500" preserveAspectRatio="xMidYMid meet" version="1.0"><defs><clipPath id="c6f59420ef"><path d="M 145 219 L 380 219 L 380 374.832031 L 145 374.832031 Z M 145 219 " clip-rule="nonzero"/></clipPath><clipPath id="b8919b029e"><path d="M 136 362 L 390 362 L 390 374.832031 L 136 374.832031 Z M 136 362 " clip-rule="nonzero"/></clipPath></defs><path fill="#e0e0e0" d="M 478.328125 131.125 C 481.375 132.714844 484.160156 134.679688 486.683594 137.011719 L 495.613281 133.839844 L 504 147.085938 L 497.316406 153.835938 C 498.351562 157.113281 498.933594 160.472656 499.066406 163.910156 L 507.628906 167.972656 L 504.195312 183.273438 L 494.722656 183.273438 C 493.128906 186.324219 491.164062 189.109375 488.828125 191.636719 L 492.007812 200.5625 L 478.761719 208.953125 L 472.011719 202.269531 C 468.75 203.292969 465.414062 203.875 462 204.011719 L 457.933594 212.574219 L 442.628906 209.140625 L 442.628906 199.667969 C 439.570312 198.078125 436.78125 196.113281 434.25 193.773438 L 425.316406 196.953125 L 416.925781 183.707031 L 423.613281 176.957031 C 422.585938 173.679688 422 170.320312 421.859375 166.886719 L 413.25 162.851562 L 416.683594 147.550781 L 426.15625 147.550781 C 427.75 144.5 429.714844 141.710938 432.050781 139.1875 L 428.871094 130.261719 L 442.117188 121.871094 L 448.867188 128.554688 C 452.148438 127.523438 455.503906 126.941406 458.941406 126.804688 L 463.003906 118.242188 L 478.304688 121.675781 L 478.304688 131.148438 Z M 464.828125 149.125 C 464.289062 149.003906 463.746094 148.914062 463.199219 148.84375 C 462.652344 148.777344 462.105469 148.738281 461.554688 148.726562 C 461.003906 148.714844 460.453125 148.726562 459.90625 148.769531 C 459.355469 148.808594 458.808594 148.878906 458.265625 148.972656 C 457.722656 149.066406 457.1875 149.1875 456.65625 149.335938 C 456.125 149.484375 455.605469 149.65625 455.089844 149.855469 C 454.578125 150.054688 454.074219 150.277344 453.582031 150.527344 C 453.089844 150.773438 452.613281 151.046875 452.148438 151.339844 C 451.683594 151.636719 451.234375 151.953125 450.796875 152.292969 C 450.363281 152.632812 449.949219 152.992188 449.550781 153.371094 C 449.152344 153.753906 448.773438 154.152344 448.414062 154.570312 C 448.054688 154.988281 447.714844 155.421875 447.398438 155.871094 C 447.082031 156.324219 446.789062 156.789062 446.515625 157.265625 C 446.246094 157.746094 446 158.238281 445.777344 158.742188 C 445.554688 159.246094 445.355469 159.757812 445.183594 160.28125 C 445.011719 160.804688 444.867188 161.335938 444.746094 161.875 C 444.625 162.410156 444.53125 162.953125 444.464844 163.5 C 444.398438 164.046875 444.359375 164.597656 444.34375 165.148438 C 444.332031 165.695312 444.347656 166.246094 444.386719 166.796875 C 444.429688 167.347656 444.496094 167.890625 444.589844 168.433594 C 444.683594 168.976562 444.804688 169.515625 444.953125 170.042969 C 445.101562 170.574219 445.273438 171.097656 445.472656 171.613281 C 445.671875 172.125 445.894531 172.628906 446.140625 173.121094 C 446.390625 173.613281 446.664062 174.089844 446.957031 174.554688 C 447.253906 175.019531 447.570312 175.46875 447.910156 175.902344 C 448.246094 176.339844 448.609375 176.753906 448.988281 177.152344 C 449.367188 177.550781 449.765625 177.929688 450.183594 178.289062 C 450.601562 178.648438 451.035156 178.988281 451.484375 179.304688 C 451.9375 179.621094 452.402344 179.914062 452.878906 180.1875 C 453.359375 180.457031 453.851562 180.703125 454.355469 180.929688 C 454.859375 181.152344 455.371094 181.347656 455.894531 181.519531 C 456.417969 181.695312 456.949219 181.839844 457.488281 181.960938 C 458.023438 182.082031 458.566406 182.175781 459.113281 182.242188 C 459.660156 182.308594 460.207031 182.347656 460.757812 182.363281 C 461.308594 182.375 461.859375 182.359375 462.410156 182.320312 C 462.957031 182.28125 463.503906 182.210938 464.046875 182.117188 C 464.589844 182.023438 465.125 181.902344 465.65625 181.753906 C 466.1875 181.609375 466.710938 181.433594 467.222656 181.238281 C 467.738281 181.039062 468.242188 180.816406 468.734375 180.566406 C 469.226562 180.320312 469.703125 180.046875 470.167969 179.753906 C 470.632812 179.457031 471.082031 179.140625 471.519531 178.800781 C 471.953125 178.460938 472.367188 178.101562 472.765625 177.722656 C 473.167969 177.34375 473.546875 176.945312 473.90625 176.527344 C 474.265625 176.109375 474.601562 175.675781 474.921875 175.226562 C 475.238281 174.777344 475.53125 174.3125 475.800781 173.832031 C 476.074219 173.351562 476.320312 172.859375 476.542969 172.355469 C 476.765625 171.851562 476.964844 171.339844 477.136719 170.816406 C 477.308594 170.292969 477.457031 169.761719 477.578125 169.226562 C 477.699219 168.6875 477.792969 168.144531 477.859375 167.597656 C 477.925781 167.050781 477.964844 166.503906 477.980469 165.953125 C 477.992188 165.402344 477.980469 164.851562 477.9375 164.300781 C 477.898438 163.753906 477.828125 163.207031 477.734375 162.664062 C 477.640625 162.121094 477.519531 161.582031 477.371094 161.050781 C 477.222656 160.523438 477.050781 160 476.851562 159.484375 C 476.652344 158.972656 476.429688 158.46875 476.183594 157.976562 C 475.933594 157.484375 475.664062 157.003906 475.367188 156.539062 C 475.074219 156.074219 474.753906 155.625 474.417969 155.191406 C 474.078125 154.757812 473.71875 154.339844 473.335938 153.941406 C 472.957031 153.542969 472.558594 153.164062 472.140625 152.804688 C 471.722656 152.445312 471.289062 152.105469 470.839844 151.789062 C 470.386719 151.472656 469.921875 151.179688 469.441406 150.90625 C 468.964844 150.636719 468.472656 150.386719 467.96875 150.164062 C 467.464844 149.941406 466.949219 149.746094 466.425781 149.574219 C 465.902344 149.398438 465.371094 149.253906 464.835938 149.132812 Z M 464.828125 149.125 " fill-opacity="1" fill-rule="evenodd"/><path fill="#e0e0e0" d="M 394.148438 101.839844 C 395.175781 101.984375 396.152344 102.292969 397.078125 102.761719 C 398.371094 103.378906 399.515625 104.195312 400.523438 105.210938 C 401.527344 106.226562 402.332031 107.382812 402.9375 108.679688 C 403.796875 110.488281 404.191406 112.398438 404.128906 114.402344 C 404.058594 116.71875 403.402344 118.859375 402.164062 120.820312 C 400.777344 122.996094 398.902344 124.605469 396.539062 125.644531 C 395.921875 125.917969 395.289062 126.140625 394.636719 126.3125 C 393.980469 126.484375 393.320312 126.601562 392.648438 126.667969 C 391.976562 126.734375 391.304688 126.746094 390.628906 126.703125 C 389.957031 126.664062 389.289062 126.570312 388.632812 126.421875 C 387.972656 126.273438 387.328125 126.074219 386.703125 125.824219 C 386.074219 125.574219 385.472656 125.277344 384.894531 124.929688 C 384.3125 124.582031 383.765625 124.195312 383.25 123.757812 C 382.730469 123.324219 382.25 122.855469 381.808594 122.34375 C 380.132812 120.394531 379.132812 118.144531 378.808594 115.59375 C 378.519531 113.292969 378.832031 111.082031 379.753906 108.957031 C 380.558594 107.121094 381.734375 105.5625 383.28125 104.289062 C 384.378906 103.378906 385.601562 102.683594 386.945312 102.195312 C 388.289062 101.707031 389.675781 101.460938 391.101562 101.457031 C 392.140625 101.429688 393.15625 101.570312 394.148438 101.875 C 394.148438 101.964844 393.058594 101.660156 391.148438 101.734375 C 389.765625 101.796875 388.429688 102.089844 387.144531 102.601562 C 385.859375 103.117188 384.695312 103.828125 383.648438 104.734375 C 382.875 105.390625 382.195312 106.132812 381.609375 106.960938 C 381.023438 107.789062 380.550781 108.675781 380.1875 109.621094 C 379.824219 110.566406 379.582031 111.546875 379.464844 112.550781 C 379.347656 113.558594 379.355469 114.566406 379.492188 115.570312 C 379.632812 116.730469 379.949219 117.84375 380.4375 118.910156 C 380.925781 120.03125 381.574219 121.046875 382.386719 121.960938 C 382.804688 122.441406 383.257812 122.890625 383.746094 123.296875 C 384.234375 123.707031 384.753906 124.078125 385.300781 124.40625 C 385.847656 124.730469 386.417969 125.011719 387.011719 125.25 C 387.605469 125.484375 388.210938 125.675781 388.832031 125.8125 C 389.457031 125.953125 390.085938 126.042969 390.722656 126.082031 C 391.359375 126.121094 391.996094 126.109375 392.628906 126.046875 C 393.265625 125.984375 393.890625 125.871094 394.507812 125.710938 C 395.125 125.546875 395.722656 125.339844 396.308594 125.082031 C 398.546875 124.105469 400.328125 122.589844 401.65625 120.535156 C 402.847656 118.683594 403.488281 116.65625 403.582031 114.453125 C 403.664062 112.539062 403.3125 110.710938 402.523438 108.964844 C 401.957031 107.703125 401.203125 106.570312 400.257812 105.5625 C 399.308594 104.554688 398.226562 103.730469 397.003906 103.082031 C 395.25 102.109375 394.125 101.921875 394.148438 101.839844 Z M 394.148438 101.839844 " fill-opacity="1" fill-rule="nonzero"/><path fill="#e0e0e0" d="M 404.109375 88.546875 C 404.097656 88.402344 404.097656 88.253906 404.109375 88.105469 C 404.109375 87.785156 404.109375 87.355469 404.109375 86.785156 C 404.109375 85.570312 404.085938 83.820312 404.039062 81.535156 L 404.128906 81.648438 L 392.8125 79.171875 L 393.015625 79.074219 L 390.015625 85.40625 L 389.960938 85.527344 L 389.835938 85.527344 C 387.316406 85.636719 384.855469 86.074219 382.453125 86.839844 L 382.320312 86.882812 L 382.222656 86.777344 L 377.25 81.875 L 377.566406 81.875 L 367.816406 88.089844 L 367.925781 87.761719 C 368.675781 89.800781 369.464844 92.050781 370.289062 94.351562 L 370.351562 94.519531 L 370.222656 94.652344 C 368.519531 96.5 367.089844 98.535156 365.933594 100.765625 L 365.851562 100.929688 L 358.664062 100.929688 L 358.980469 100.683594 C 358.183594 104.230469 357.328125 108.0625 356.460938 111.984375 L 356.273438 111.609375 L 362.59375 114.609375 L 362.78125 114.691406 L 362.78125 114.957031 C 362.886719 117.460938 363.3125 119.90625 364.066406 122.296875 L 364.132812 122.5 L 363.984375 122.644531 L 359.046875 127.609375 L 359.09375 127.171875 C 361.058594 130.269531 363.164062 133.585938 365.296875 136.921875 L 364.875 136.78125 L 371.46875 134.433594 L 371.675781 134.359375 L 371.835938 134.5 C 373.667969 136.203125 375.695312 137.632812 377.917969 138.789062 L 378.113281 139.105469 L 378.113281 146.097656 L 377.835938 145.742188 L 389.136719 148.285156 L 388.738281 148.472656 C 389.738281 146.347656 390.738281 144.242188 391.738281 142.160156 L 391.835938 141.964844 L 392.046875 141.964844 C 394.550781 141.867188 397 141.441406 399.390625 140.6875 L 399.59375 140.628906 L 399.742188 140.777344 L 404.691406 145.722656 L 404.25 145.707031 L 414 139.527344 L 413.863281 139.910156 C 413.070312 137.660156 412.296875 135.476562 411.523438 133.316406 L 411.464844 133.128906 L 411.59375 132.984375 C 413.300781 131.148438 414.738281 129.117188 415.90625 126.894531 L 415.988281 126.730469 L 423.171875 126.730469 L 422.878906 126.964844 C 423.78125 122.988281 424.636719 119.238281 425.4375 115.667969 L 425.585938 115.976562 L 419.28125 112.976562 L 419.136719 112.910156 L 419.136719 112.707031 C 419.046875 110.191406 418.625 107.734375 417.878906 105.332031 L 417.832031 105.199219 L 417.9375 105.09375 L 422.886719 100.152344 L 422.886719 100.414062 L 416.738281 90.609375 L 416.925781 90.671875 L 410.316406 92.980469 L 410.25 92.980469 L 410.199219 92.929688 C 408.8125 91.628906 407.3125 90.476562 405.699219 89.472656 L 404.496094 88.722656 C 404.359375 88.648438 404.226562 88.566406 404.101562 88.480469 C 404.246094 88.53125 404.390625 88.59375 404.527344 88.667969 C 404.804688 88.8125 405.21875 89.027344 405.757812 89.34375 C 407.40625 90.316406 408.933594 91.449219 410.347656 92.742188 L 410.234375 92.742188 L 416.8125 90.347656 L 416.933594 90.304688 L 417 90.414062 L 423.238281 100.164062 L 423.328125 100.308594 L 423.210938 100.429688 C 421.710938 101.929688 420.074219 103.59375 418.289062 105.410156 L 418.34375 105.167969 C 419.121094 107.609375 419.566406 110.109375 419.671875 112.667969 L 419.527344 112.441406 L 425.859375 115.441406 L 426.050781 115.539062 L 426 115.75 C 425.25 119.328125 424.371094 123.078125 423.496094 127.054688 L 423.441406 127.285156 L 416.203125 127.285156 L 416.484375 127.121094 C 415.300781 129.398438 413.835938 131.476562 412.09375 133.359375 L 412.164062 133.039062 C 412.925781 135.199219 413.710938 137.394531 414.515625 139.628906 L 414.601562 139.878906 L 414.382812 140.019531 L 404.632812 146.222656 L 404.398438 146.367188 L 404.210938 146.179688 L 399.246094 141.242188 L 399.59375 141.324219 C 397.152344 142.101562 394.652344 142.539062 392.09375 142.636719 L 392.398438 142.441406 L 389.398438 148.765625 L 389.28125 149.019531 L 389.003906 148.953125 L 377.664062 146.457031 L 377.386719 146.394531 L 377.386719 146.109375 C 377.386719 144.949219 377.386719 143.785156 377.386719 142.625 L 377.386719 139.121094 C 377.765625 139.75 377.488281 139.292969 377.574219 139.4375 C 375.296875 138.242188 373.21875 136.777344 371.332031 135.035156 L 371.691406 135.109375 L 365.078125 137.457031 L 364.808594 137.546875 L 364.65625 137.304688 L 358.46875 127.554688 L 358.320312 127.324219 L 358.515625 127.121094 L 363.457031 122.164062 L 363.375 122.515625 C 362.605469 120.074219 362.171875 117.574219 362.070312 115.015625 L 362.257812 115.308594 L 355.941406 112.308594 L 355.703125 112.195312 L 355.761719 111.933594 L 358.3125 100.683594 L 358.363281 100.429688 L 365.617188 100.429688 L 365.347656 100.59375 C 366.527344 98.289062 367.996094 96.183594 369.75 94.277344 L 369.691406 94.578125 L 367.351562 87.957031 L 367.273438 87.746094 L 367.46875 87.625 L 377.25 81.476562 L 377.421875 81.371094 L 377.566406 81.511719 C 379.3125 83.246094 381 84.957031 382.5 86.457031 L 382.261719 86.394531 C 384.703125 85.632812 387.203125 85.210938 389.761719 85.121094 L 389.578125 85.234375 C 390.675781 82.984375 391.695312 80.839844 392.578125 78.933594 L 392.640625 78.796875 L 392.78125 78.796875 L 404.03125 81.402344 L 404.121094 81.402344 L 404.121094 81.492188 C 404.121094 83.742188 404.109375 85.472656 404.078125 86.679688 C 404.078125 87.25 404.078125 87.691406 404.078125 88.023438 C 404.097656 88.199219 404.109375 88.371094 404.109375 88.546875 Z M 404.109375 88.546875 " fill-opacity="1" fill-rule="nonzero"/><path fill="#e0e0e0" d="M 91.777344 261.566406 C 92.457031 261.777344 93.089844 262.09375 93.667969 262.511719 C 94.472656 263.070312 95.160156 263.753906 95.730469 264.550781 C 96.296875 265.351562 96.714844 266.222656 96.984375 267.167969 C 97.359375 268.492188 97.417969 269.828125 97.164062 271.179688 C 96.855469 272.742188 96.171875 274.121094 95.113281 275.3125 C 93.9375 276.632812 92.492188 277.515625 90.78125 277.960938 C 89.875 278.195312 88.960938 278.285156 88.027344 278.226562 C 87.097656 278.164062 86.199219 277.960938 85.332031 277.613281 C 84.464844 277.265625 83.675781 276.792969 82.960938 276.191406 C 82.25 275.589844 81.648438 274.890625 81.15625 274.097656 C 80.691406 273.347656 80.347656 272.542969 80.128906 271.683594 C 79.910156 270.863281 79.820312 270.027344 79.859375 269.179688 C 79.925781 267.585938 80.386719 266.121094 81.246094 264.785156 C 81.699219 264.089844 82.238281 263.46875 82.863281 262.929688 C 83.492188 262.390625 84.183594 261.949219 84.9375 261.609375 C 85.691406 261.269531 86.480469 261.042969 87.300781 260.929688 C 88.121094 260.816406 88.941406 260.820312 89.761719 260.941406 C 90.46875 261.039062 91.140625 261.246094 91.777344 261.566406 C 91.777344 261.625 91.027344 261.304688 89.738281 261.128906 C 87.796875 260.902344 85.992188 261.296875 84.324219 262.316406 C 83.199219 262.996094 82.285156 263.890625 81.585938 265 C 80.785156 266.285156 80.359375 267.683594 80.308594 269.191406 C 80.28125 269.996094 80.371094 270.785156 80.578125 271.5625 C 80.789062 272.367188 81.121094 273.117188 81.570312 273.8125 C 82.03125 274.5625 82.601562 275.222656 83.277344 275.789062 C 83.949219 276.359375 84.695312 276.804688 85.515625 277.132812 C 86.332031 277.464844 87.179688 277.65625 88.0625 277.710938 C 88.941406 277.769531 89.808594 277.6875 90.660156 277.464844 C 92.285156 277.046875 93.660156 276.21875 94.785156 274.976562 C 95.25 274.460938 95.644531 273.894531 95.96875 273.277344 C 96.292969 272.664062 96.535156 272.015625 96.695312 271.339844 C 96.859375 270.664062 96.9375 269.980469 96.925781 269.285156 C 96.917969 268.589844 96.824219 267.90625 96.644531 267.234375 C 96.144531 265.347656 95.113281 263.816406 93.554688 262.636719 C 92.980469 262.25 92.386719 261.890625 91.777344 261.566406 Z M 91.777344 261.566406 " fill-opacity="1" fill-rule="nonzero"/><path fill="#e0e0e0" d="M 99.996094 253.652344 C 99.984375 253.554688 99.984375 253.457031 99.996094 253.359375 C 99.996094 253.136719 100.066406 252.84375 100.125 252.460938 C 100.246094 251.636719 100.417969 250.441406 100.648438 248.90625 L 100.695312 248.988281 L 93.308594 246.0625 L 93.449219 246.019531 C 92.632812 247.226562 91.71875 248.554688 90.742188 249.984375 L 90.691406 250.054688 L 90.601562 250.054688 C 88.882812 249.847656 87.171875 249.871094 85.460938 250.128906 L 85.363281 250.128906 L 85.304688 250.046875 L 82.5 246.207031 L 82.703125 246.265625 L 75.40625 249.402344 L 75.515625 249.191406 C 75.789062 250.652344 76.085938 252.257812 76.386719 253.914062 L 76.386719 254.035156 L 76.289062 254.109375 C 74.949219 255.164062 73.769531 256.375 72.75 257.742188 L 72.675781 257.847656 L 72.546875 257.847656 L 67.800781 257.097656 L 68.039062 256.960938 C 67.109375 259.277344 66.113281 261.785156 65.085938 264.339844 L 65.003906 264.070312 L 68.953125 266.800781 L 69.074219 266.875 L 69.074219 267.019531 C 68.871094 268.726562 68.890625 270.429688 69.136719 272.132812 L 69.136719 272.277344 L 69.023438 272.367188 L 65.128906 275.179688 L 65.203125 274.894531 L 68.332031 282.207031 L 68.0625 282.0625 L 72.789062 281.199219 L 72.9375 281.199219 L 73.027344 281.3125 C 74.085938 282.667969 75.300781 283.863281 76.679688 284.890625 C 76.726562 284.996094 76.589844 284.660156 76.777344 285.128906 L 76.777344 285.355469 L 76.726562 285.65625 L 76.636719 286.25 L 76.441406 287.441406 C 76.3125 288.226562 76.183594 289.023438 76.058594 289.804688 L 75.90625 289.539062 L 83.289062 292.503906 L 82.996094 292.59375 L 85.726562 288.640625 L 85.808594 288.519531 L 85.957031 288.519531 C 87.664062 288.738281 89.371094 288.71875 91.074219 288.46875 L 91.214844 288.46875 L 91.296875 288.582031 L 94.109375 292.480469 L 93.832031 292.398438 L 101.144531 289.285156 L 101.011719 289.535156 C 100.726562 287.929688 100.441406 286.351562 100.15625 284.808594 L 100.15625 284.671875 L 100.261719 284.597656 C 101.621094 283.539062 102.816406 282.316406 103.851562 280.9375 L 103.925781 280.832031 L 104.054688 280.832031 L 108.796875 281.582031 L 108.570312 281.703125 L 111.570312 274.339844 L 111.636719 274.5625 L 107.691406 271.816406 L 107.601562 271.757812 L 107.601562 271.652344 C 107.816406 269.9375 107.800781 268.226562 107.558594 266.515625 L 107.558594 266.417969 L 107.640625 266.367188 L 111.539062 263.5625 L 111.496094 263.734375 C 110.296875 260.898438 109.246094 258.484375 108.40625 256.414062 L 108.523438 256.472656 L 103.792969 257.304688 L 103.746094 257.304688 L 103.746094 257.269531 C 102.953125 256.234375 102.066406 255.289062 101.085938 254.433594 L 100.335938 253.804688 C 100.164062 253.667969 100.085938 253.601562 100.09375 253.59375 L 100.359375 253.773438 C 100.53125 253.902344 100.792969 254.09375 101.109375 254.367188 C 102.113281 255.210938 103.027344 256.144531 103.84375 257.171875 L 103.761719 257.171875 L 108.488281 256.269531 L 108.570312 256.269531 L 108.570312 256.351562 L 111.71875 263.652344 L 111.765625 263.753906 L 111.675781 263.824219 L 107.789062 266.652344 L 107.859375 266.5 C 108.117188 268.246094 108.140625 269.996094 107.925781 271.75 L 107.851562 271.585938 L 111.808594 274.308594 L 111.9375 274.390625 L 111.878906 274.527344 C 110.949219 276.867188 109.964844 279.3125 108.929688 281.914062 L 108.871094 282.0625 L 108.703125 282.0625 L 103.964844 281.3125 L 104.167969 281.230469 C 103.117188 282.644531 101.894531 283.894531 100.507812 284.980469 L 100.589844 284.761719 C 100.875 286.316406 101.164062 287.894531 101.453125 289.488281 L 101.453125 289.667969 L 101.25 289.707031 L 93.9375 292.832031 L 93.773438 292.910156 L 93.660156 292.757812 L 90.839844 288.867188 L 91.066406 288.964844 C 89.316406 289.21875 87.566406 289.238281 85.816406 289.023438 L 86.039062 288.917969 C 85.140625 290.222656 84.230469 291.539062 83.308594 292.871094 L 83.203125 293.035156 L 83.023438 292.960938 L 75.644531 290 L 75.464844 289.929688 L 75.464844 289.734375 L 75.847656 287.375 L 76.035156 286.179688 L 76.132812 285.589844 L 76.175781 285.289062 L 76.175781 285.003906 C 76.363281 285.46875 76.230469 285.128906 76.265625 285.234375 C 74.851562 284.183594 73.601562 282.960938 72.515625 281.566406 L 72.75 281.65625 L 68.023438 282.519531 L 67.828125 282.558594 L 67.753906 282.378906 C 66.683594 279.867188 65.625 277.382812 64.640625 275.066406 L 64.566406 274.886719 L 64.71875 274.773438 L 68.617188 271.960938 L 68.519531 272.191406 C 68.269531 270.445312 68.253906 268.695312 68.46875 266.941406 L 68.566406 267.167969 L 64.621094 264.429688 L 64.46875 264.324219 L 64.539062 264.160156 C 65.566406 261.59375 66.570312 259.097656 67.539062 256.789062 L 67.605469 256.625 L 67.777344 256.625 L 72.515625 257.375 L 72.316406 257.457031 C 73.371094 256.042969 74.59375 254.792969 75.984375 253.707031 L 75.90625 253.902344 C 75.609375 252.25 75.324219 250.636719 75.050781 249.175781 L 75.050781 249.027344 L 75.195312 248.964844 L 82.507812 245.859375 L 82.636719 245.808594 L 82.71875 245.921875 L 85.523438 249.820312 L 85.371094 249.753906 C 87.121094 249.503906 88.871094 249.492188 90.621094 249.714844 L 90.488281 249.777344 L 93.234375 245.839844 L 93.292969 245.753906 L 93.382812 245.792969 L 100.738281 248.792969 L 100.800781 248.792969 L 100.800781 248.851562 L 100.191406 252.363281 C 100.125 252.746094 100.066406 253.046875 100.027344 253.269531 C 100.03125 253.398438 100.019531 253.527344 99.996094 253.652344 Z M 99.996094 253.652344 " fill-opacity="1" fill-rule="nonzero"/><path fill="#e0e0e0" d="M 162.703125 293.515625 C 165.148438 295.34375 167.308594 297.460938 169.183594 299.867188 L 177.433594 298.367188 L 182.902344 311.179688 L 176.078125 316.113281 C 176.519531 319.136719 176.554688 322.164062 176.183594 325.195312 L 183.105469 329.980469 L 177.90625 342.902344 L 169.597656 341.566406 C 167.773438 344.015625 165.65625 346.179688 163.246094 348.054688 L 164.746094 356.304688 L 151.933594 361.773438 L 147.046875 354.957031 C 144.023438 355.390625 140.996094 355.425781 137.960938 355.054688 L 133.183594 361.976562 L 120.253906 356.785156 L 121.589844 348.476562 C 119.140625 346.648438 116.980469 344.527344 115.101562 342.117188 L 106.816406 343.617188 L 101.355469 330.804688 L 108.171875 325.871094 C 107.738281 322.847656 107.703125 319.820312 108.074219 316.789062 L 101.152344 312.003906 L 106.34375 299.082031 L 114.652344 300.414062 C 116.480469 297.96875 118.601562 295.804688 121.011719 293.929688 L 119.511719 285.640625 L 132.324219 280.171875 L 137.257812 287 C 140.28125 286.558594 143.308594 286.527344 146.339844 286.902344 L 151.125 279.976562 L 164.03125 285.207031 Z M 148.304688 307.375 C 147.394531 307.007812 146.457031 306.734375 145.492188 306.554688 C 144.527344 306.375 143.554688 306.289062 142.574219 306.296875 C 141.589844 306.308594 140.621094 306.414062 139.660156 306.617188 C 138.699219 306.816406 137.765625 307.109375 136.863281 307.496094 C 135.960938 307.878906 135.105469 308.351562 134.292969 308.902344 C 133.484375 309.457031 132.734375 310.085938 132.050781 310.785156 C 131.363281 311.488281 130.75 312.25 130.214844 313.070312 C 129.675781 313.894531 129.226562 314.757812 128.859375 315.671875 C 128.496094 316.582031 128.21875 317.519531 128.039062 318.484375 C 127.859375 319.449219 127.773438 320.421875 127.78125 321.402344 C 127.792969 322.382812 127.898438 323.355469 128.101562 324.316406 C 128.300781 325.277344 128.597656 326.207031 128.980469 327.109375 C 129.367188 328.011719 129.835938 328.871094 130.390625 329.679688 C 130.945312 330.492188 131.570312 331.238281 132.273438 331.925781 C 132.972656 332.613281 133.734375 333.222656 134.558594 333.761719 C 135.378906 334.296875 136.246094 334.75 137.15625 335.113281 C 138.066406 335.480469 139.003906 335.753906 139.96875 335.933594 C 140.933594 336.117188 141.90625 336.203125 142.890625 336.191406 C 143.871094 336.179688 144.84375 336.074219 145.800781 335.871094 C 146.761719 335.671875 147.695312 335.378906 148.597656 334.992188 C 149.5 334.605469 150.355469 334.136719 151.167969 333.582031 C 151.976562 333.027344 152.726562 332.402344 153.410156 331.699219 C 154.097656 331 154.710938 330.238281 155.246094 329.414062 C 155.78125 328.59375 156.234375 327.726562 156.601562 326.816406 C 156.964844 325.90625 157.238281 324.96875 157.421875 324.003906 C 157.601562 323.039062 157.6875 322.066406 157.675781 321.085938 C 157.664062 320.105469 157.558594 319.132812 157.359375 318.171875 C 157.15625 317.210938 156.863281 316.28125 156.476562 315.378906 C 156.09375 314.476562 155.625 313.621094 155.070312 312.808594 C 154.515625 312 153.886719 311.25 153.1875 310.5625 C 152.484375 309.878906 151.726562 309.265625 150.902344 308.730469 C 150.082031 308.191406 149.214844 307.742188 148.304688 307.375 Z M 148.304688 307.375 " fill-opacity="1" fill-rule="evenodd"/><path fill="#ebebeb" d="M 162.136719 211.015625 L 71.738281 211.015625 L 71.738281 98.589844 L 140.886719 98.792969 L 162.136719 121.871094 Z M 162.136719 211.015625 " fill-opacity="1" fill-rule="nonzero"/><path fill="#263238" d="M 98.773438 162.730469 C 98.664062 162.84375 97.164062 161.484375 94.828125 159.207031 C 92.496094 156.925781 89.324219 153.714844 85.875 150.117188 L 85.492188 149.710938 L 85.875 149.304688 L 85.875 149.269531 C 89.308594 145.644531 92.46875 142.40625 94.800781 140.101562 C 97.132812 137.800781 98.625 136.429688 98.738281 136.539062 C 98.851562 136.652344 97.574219 138.222656 95.398438 140.671875 C 93.226562 143.125 90.148438 146.449219 86.722656 150.078125 L 86.683594 150.078125 L 86.683594 149.304688 C 90.136719 152.90625 93.203125 156.207031 95.386719 158.636719 C 97.566406 161.066406 98.894531 162.617188 98.773438 162.730469 Z M 98.773438 162.730469 " fill-opacity="1" fill-rule="nonzero"/><path fill="#263238" d="M 135.050781 136.539062 C 135.171875 136.429688 136.671875 137.785156 139.003906 140.066406 C 141.335938 142.347656 144.511719 145.554688 147.953125 149.15625 L 148.34375 149.5625 L 147.960938 149.964844 L 147.921875 149.964844 C 144.480469 153.597656 141.324219 156.828125 138.996094 159.128906 C 136.671875 161.433594 135.171875 162.804688 135.050781 162.691406 C 134.933594 162.582031 136.222656 161.011719 138.398438 158.5625 C 140.574219 156.109375 143.648438 152.785156 147.066406 149.164062 L 147.066406 149.117188 L 147.066406 149.929688 C 143.625 146.328125 140.550781 143.027344 138.367188 140.605469 C 136.183594 138.183594 134.941406 136.652344 135.050781 136.539062 Z M 135.050781 136.539062 " fill-opacity="1" fill-rule="nonzero"/><path fill="#263238" d="M 105.914062 166.863281 C 105.644531 166.699219 110.332031 158.523438 116.414062 148.609375 C 122.496094 138.691406 127.613281 130.796875 127.890625 130.96875 C 128.167969 131.140625 123.480469 139.308594 117.390625 149.222656 C 111.300781 159.136719 106.191406 167.035156 105.914062 166.863281 Z M 105.914062 166.863281 " fill-opacity="1" fill-rule="nonzero"/><path fill="#e0e0e0" d="M 140.878906 98.800781 L 140.796875 117.632812 C 140.796875 117.957031 140.828125 118.28125 140.890625 118.597656 C 140.953125 118.917969 141.050781 119.226562 141.175781 119.527344 C 141.300781 119.824219 141.453125 120.109375 141.636719 120.378906 C 141.820312 120.644531 142.027344 120.894531 142.261719 121.121094 C 142.492188 121.347656 142.746094 121.546875 143.019531 121.722656 C 143.292969 121.898438 143.582031 122.046875 143.882812 122.164062 C 144.1875 122.28125 144.496094 122.371094 144.816406 122.425781 C 145.136719 122.480469 145.460938 122.503906 145.785156 122.492188 L 162.136719 121.886719 Z M 140.878906 98.800781 " fill-opacity="1" fill-rule="nonzero"/><path fill="#5e17eb" d="M 61.183594 174.746094 L 101.273438 174.746094 L 101.273438 199.113281 L 61.183594 199.113281 Z M 61.183594 174.746094 " fill-opacity="1" fill-rule="nonzero"/><path fill="#ffffff" d="M 72.578125 191.914062 L 73.621094 190.707031 C 73.902344 191.164062 74.273438 191.527344 74.742188 191.792969 C 75.207031 192.058594 75.707031 192.195312 76.246094 192.207031 C 77.664062 192.207031 78.398438 191.34375 78.398438 189.648438 L 78.398438 182.582031 L 73.851562 182.582031 L 73.851562 181.023438 L 80.183594 181.023438 L 80.183594 189.558594 C 80.183594 192.363281 78.816406 193.75 76.246094 193.75 C 75.519531 193.765625 74.832031 193.609375 74.183594 193.285156 C 73.535156 192.960938 73 192.503906 72.578125 191.914062 Z M 72.578125 191.914062 " fill-opacity="1" fill-rule="nonzero"/><path fill="#ffffff" d="M 82.695312 192.144531 L 83.363281 190.742188 C 84.570312 191.730469 85.953125 192.214844 87.511719 192.199219 C 89.691406 192.199219 90.621094 191.351562 90.621094 190.253906 C 90.621094 187.179688 83.003906 189.125 83.003906 184.449219 C 83.003906 182.507812 84.503906 180.851562 87.816406 180.851562 C 89.277344 180.824219 90.628906 181.195312 91.867188 181.96875 L 91.265625 183.410156 C 90.21875 182.730469 89.066406 182.390625 87.816406 182.378906 C 85.679688 182.378906 84.765625 183.28125 84.765625 184.375 C 84.765625 187.449219 92.386719 185.53125 92.386719 190.152344 C 92.386719 192.070312 90.839844 193.726562 87.511719 193.726562 C 85.714844 193.777344 84.109375 193.25 82.695312 192.144531 Z M 82.695312 192.144531 " fill-opacity="1" fill-rule="nonzero"/><path fill="#263238" d="M 258.644531 160.160156 L 462.523438 160.160156 L 462.523438 278.957031 L 258.644531 278.957031 Z M 258.644531 160.160156 " fill-opacity="1" fill-rule="nonzero"/><path fill="#e0e0e0" d="M 274.589844 272.980469 C 274.484375 272.980469 274.394531 248.6875 274.394531 218.726562 C 274.394531 188.761719 274.5 164.457031 274.589844 164.457031 C 274.679688 164.457031 274.785156 188.742188 274.785156 218.710938 C 274.785156 248.679688 274.703125 272.980469 274.589844 272.980469 Z M 274.589844 272.980469 " fill-opacity="1" fill-rule="nonzero"/><path fill="#e0e0e0" d="M 270.398438 169.046875 C 268.148438 169.304688 265.898438 169.304688 263.648438 169.046875 C 265.898438 168.785156 268.148438 168.785156 270.398438 169.046875 Z M 270.398438 169.046875 " fill-opacity="1" fill-rule="nonzero"/><path fill="#e0e0e0" d="M 270.398438 176.191406 C 268.148438 176.453125 265.898438 176.453125 263.648438 176.191406 C 265.898438 175.933594 268.148438 175.933594 270.398438 176.191406 Z M 270.398438 176.191406 " fill-opacity="1" fill-rule="nonzero"/><path fill="#e0e0e0" d="M 270.398438 183.347656 C 268.148438 183.609375 265.898438 183.609375 263.648438 183.347656 C 265.898438 183.085938 268.148438 183.085938 270.398438 183.347656 Z M 270.398438 183.347656 " fill-opacity="1" fill-rule="nonzero"/><path fill="#e0e0e0" d="M 270.398438 190.496094 C 268.148438 190.757812 265.898438 190.757812 263.648438 190.496094 C 265.898438 190.234375 268.148438 190.234375 270.398438 190.496094 Z M 270.398438 190.496094 " fill-opacity="1" fill-rule="nonzero"/><path fill="#e0e0e0" d="M 270.398438 197.644531 C 268.148438 197.902344 265.898438 197.902344 263.648438 197.644531 C 265.898438 197.382812 268.148438 197.382812 270.398438 197.644531 Z M 270.398438 197.644531 " fill-opacity="1" fill-rule="nonzero"/><path fill="#e0e0e0" d="M 270.398438 204.796875 C 268.148438 205.058594 265.898438 205.058594 263.648438 204.796875 C 265.898438 204.539062 268.148438 204.539062 270.398438 204.796875 Z M 270.398438 204.796875 " fill-opacity="1" fill-rule="nonzero"/><path fill="#e0e0e0" d="M 270.398438 211.945312 C 268.148438 212.207031 265.898438 212.207031 263.648438 211.945312 C 265.898438 211.683594 268.148438 211.683594 270.398438 211.945312 Z M 270.398438 211.945312 " fill-opacity="1" fill-rule="nonzero"/><path fill="#e0e0e0" d="M 270.398438 219.09375 C 268.148438 219.355469 265.898438 219.355469 263.648438 219.09375 C 265.898438 218.832031 268.148438 218.832031 270.398438 219.09375 Z M 270.398438 219.09375 " fill-opacity="1" fill-rule="nonzero"/><path fill="#e0e0e0" d="M 270.398438 226.25 C 268.148438 226.507812 265.898438 226.507812 263.648438 226.25 C 265.898438 225.988281 268.148438 225.988281 270.398438 226.25 Z M 270.398438 226.25 " fill-opacity="1" fill-rule="nonzero"/><path fill="#e0e0e0" d="M 270.398438 233.394531 C 268.148438 233.65625 265.898438 233.65625 263.648438 233.394531 C 265.898438 233.136719 268.148438 233.136719 270.398438 233.394531 Z M 270.398438 233.394531 " fill-opacity="1" fill-rule="nonzero"/><path fill="#e0e0e0" d="M 270.398438 240.542969 C 268.148438 240.804688 265.898438 240.804688 263.648438 240.542969 C 265.898438 240.28125 268.148438 240.28125 270.398438 240.542969 Z M 270.398438 240.542969 " fill-opacity="1" fill-rule="nonzero"/><path fill="#e0e0e0" d="M 270.398438 247.707031 C 268.148438 247.964844 265.898438 247.964844 263.648438 247.707031 C 265.898438 247.445312 268.148438 247.445312 270.398438 247.707031 Z M 270.398438 247.707031 " fill-opacity="1" fill-rule="nonzero"/><path fill="#e0e0e0" d="M 270.398438 254.847656 C 268.148438 255.105469 265.898438 255.105469 263.648438 254.847656 C 265.898438 254.585938 268.148438 254.585938 270.398438 254.847656 Z M 270.398438 254.847656 " fill-opacity="1" fill-rule="nonzero"/><path fill="#e0e0e0" d="M 270.398438 261.992188 C 268.148438 262.253906 265.898438 262.253906 263.648438 261.992188 C 265.898438 261.730469 268.148438 261.730469 270.398438 261.992188 Z M 270.398438 261.992188 " fill-opacity="1" fill-rule="nonzero"/><path fill="#e0e0e0" d="M 270.398438 269.148438 C 268.148438 269.410156 265.898438 269.410156 263.648438 269.148438 C 265.898438 268.886719 268.148438 268.886719 270.398438 269.148438 Z M 270.398438 269.148438 " fill-opacity="1" fill-rule="nonzero"/><path fill="#5e17eb" d="M 297.464844 168.625 C 297.464844 168.730469 293.542969 168.820312 288.703125 168.820312 C 283.867188 168.820312 279.9375 168.730469 279.9375 168.625 C 279.9375 168.519531 283.859375 168.429688 288.703125 168.429688 C 293.550781 168.429688 297.464844 168.511719 297.464844 168.625 Z M 297.464844 168.625 " fill-opacity="1" fill-rule="nonzero"/><path fill="#5e17eb" d="M 297.464844 269.148438 C 297.464844 269.253906 293.542969 269.34375 288.703125 269.34375 C 283.867188 269.34375 279.9375 269.253906 279.9375 269.148438 C 279.9375 269.042969 283.859375 268.953125 288.703125 268.953125 C 293.550781 268.953125 297.464844 269.035156 297.464844 269.148438 Z M 297.464844 269.148438 " fill-opacity="1" fill-rule="nonzero"/><path fill="#5e17eb" d="M 321.871094 183.347656 C 321.871094 183.453125 314.527344 183.542969 305.476562 183.542969 C 296.421875 183.542969 289.078125 183.453125 289.078125 183.347656 C 289.078125 183.242188 296.421875 183.152344 305.476562 183.152344 C 314.527344 183.152344 321.871094 183.207031 321.871094 183.347656 Z M 321.871094 183.347656 " fill-opacity="1" fill-rule="nonzero"/><path fill="#e0e0e0" d="M 359.773438 183.347656 C 359.773438 183.453125 352.441406 183.542969 343.386719 183.542969 C 334.335938 183.542969 326.992188 183.453125 326.992188 183.347656 C 326.992188 183.242188 334.328125 183.152344 343.386719 183.152344 C 352.449219 183.152344 359.773438 183.207031 359.773438 183.347656 Z M 359.773438 183.347656 " fill-opacity="1" fill-rule="nonzero"/><path fill="#e0e0e0" d="M 345.292969 190.496094 C 345.292969 190.601562 334.46875 190.691406 321.136719 190.691406 C 307.800781 190.691406 296.96875 190.601562 296.96875 190.496094 C 296.96875 190.390625 307.785156 190.300781 321.136719 190.300781 C 334.484375 190.300781 345.292969 190.390625 345.292969 190.496094 Z M 345.292969 190.496094 " fill-opacity="1" fill-rule="nonzero"/><path fill="#e0e0e0" d="M 345.292969 197.644531 C 345.292969 197.753906 334.46875 197.839844 321.136719 197.839844 C 307.800781 197.839844 297 197.753906 297 197.644531 C 297 197.53125 307.816406 197.449219 321.164062 197.449219 C 334.515625 197.449219 345.292969 197.539062 345.292969 197.644531 Z M 345.292969 197.644531 " fill-opacity="1" fill-rule="nonzero"/><path fill="#e0e0e0" d="M 378.546875 219.09375 C 378.546875 219.207031 367.734375 219.289062 354.390625 219.289062 C 341.046875 219.289062 330.234375 219.207031 330.234375 219.09375 C 330.234375 218.980469 341.046875 218.898438 354.390625 218.898438 C 367.734375 218.898438 378.546875 218.988281 378.546875 219.09375 Z M 378.546875 219.09375 " fill-opacity="1" fill-rule="nonzero"/><path fill="#e0e0e0" d="M 364.199219 204.796875 C 364.199219 204.902344 353.378906 204.992188 340.042969 204.992188 C 326.707031 204.992188 315.878906 204.902344 315.878906 204.796875 C 315.878906 204.691406 326.691406 204.601562 340.042969 204.601562 C 353.390625 204.601562 364.199219 204.6875 364.199219 204.796875 Z M 364.199219 204.796875 " fill-opacity="1" fill-rule="nonzero"/><path fill="#e0e0e0" d="M 423.238281 204.796875 C 423.238281 204.902344 412.425781 204.992188 399.082031 204.992188 C 385.738281 204.992188 374.925781 204.902344 374.925781 204.796875 C 374.925781 204.691406 385.738281 204.601562 399.082031 204.601562 C 412.425781 204.601562 423.238281 204.6875 423.238281 204.796875 Z M 423.238281 204.796875 " fill-opacity="1" fill-rule="nonzero"/><path fill="#fafafa" d="M 402.703125 190.496094 C 402.703125 190.601562 391.890625 190.691406 378.546875 190.691406 C 365.203125 190.691406 354.390625 190.601562 354.390625 190.496094 C 354.390625 190.390625 365.203125 190.300781 378.546875 190.300781 C 391.890625 190.300781 402.703125 190.390625 402.703125 190.496094 Z M 402.703125 190.496094 " fill-opacity="1" fill-rule="nonzero"/><path fill="#fafafa" d="M 436.085938 219.09375 C 436.085938 219.207031 425.265625 219.289062 411.929688 219.289062 C 398.59375 219.289062 387.75 219.207031 387.75 219.09375 C 387.75 218.980469 398.566406 218.898438 411.914062 218.898438 C 425.265625 218.898438 436.085938 218.988281 436.085938 219.09375 Z M 436.085938 219.09375 " fill-opacity="1" fill-rule="nonzero"/><path fill="#455a64" d="M 429.421875 197.644531 C 429.421875 197.753906 412.621094 197.839844 391.921875 197.839844 C 371.21875 197.839844 354.421875 197.753906 354.421875 197.644531 C 354.421875 197.53125 371.210938 197.449219 391.921875 197.449219 C 412.628906 197.449219 429.421875 197.539062 429.421875 197.644531 Z M 429.421875 197.644531 " fill-opacity="1" fill-rule="nonzero"/><path fill="#fafafa" d="M 297.464844 176.191406 C 297.464844 176.304688 293.542969 176.386719 288.703125 176.386719 C 283.867188 176.386719 279.9375 176.304688 279.9375 176.191406 C 279.9375 176.082031 283.859375 176 288.703125 176 C 293.550781 176 297.464844 176.089844 297.464844 176.191406 Z M 297.464844 176.191406 " fill-opacity="1" fill-rule="nonzero"/><path fill="#fafafa" d="M 297.464844 261.992188 C 297.464844 262.105469 293.542969 262.1875 288.703125 262.1875 C 283.867188 262.1875 279.9375 262.105469 279.9375 261.992188 C 279.9375 261.878906 283.859375 261.796875 288.703125 261.796875 C 293.550781 261.796875 297.464844 261.886719 297.464844 261.992188 Z M 297.464844 261.992188 " fill-opacity="1" fill-rule="nonzero"/><path fill="#fafafa" d="M 306.140625 204.796875 C 306.140625 204.902344 302.21875 204.992188 297.382812 204.992188 C 292.546875 204.992188 288.621094 204.902344 288.621094 204.796875 C 288.621094 204.691406 292.546875 204.601562 297.382812 204.601562 C 302.21875 204.601562 306.140625 204.6875 306.140625 204.796875 Z M 306.140625 204.796875 " fill-opacity="1" fill-rule="nonzero"/><path fill="#5e17eb" d="M 446.585938 204.796875 C 446.585938 204.902344 442.664062 204.992188 437.828125 204.992188 C 432.988281 204.992188 429.066406 204.902344 429.066406 204.796875 C 429.066406 204.691406 432.988281 204.601562 437.828125 204.601562 C 442.664062 204.601562 446.585938 204.6875 446.585938 204.796875 Z M 446.585938 204.796875 " fill-opacity="1" fill-rule="nonzero"/><path fill="#5e17eb" d="M 321.871094 233.351562 C 321.871094 233.464844 314.527344 233.546875 305.476562 233.546875 C 296.421875 233.546875 289.078125 233.464844 289.078125 233.351562 C 289.078125 233.238281 296.421875 233.15625 305.476562 233.15625 C 314.527344 233.15625 321.871094 233.246094 321.871094 233.351562 Z M 321.871094 233.351562 " fill-opacity="1" fill-rule="nonzero"/><path fill="#e0e0e0" d="M 359.773438 233.351562 C 359.773438 233.464844 352.441406 233.546875 343.386719 233.546875 C 334.335938 233.546875 327 233.457031 327 233.351562 C 327 233.246094 334.335938 233.15625 343.394531 233.15625 C 352.453125 233.15625 359.773438 233.246094 359.773438 233.351562 Z M 359.773438 233.351562 " fill-opacity="1" fill-rule="nonzero"/><path fill="#e0e0e0" d="M 345.292969 240.503906 C 345.292969 240.609375 334.46875 240.699219 321.136719 240.699219 C 307.800781 240.699219 297 240.609375 297 240.503906 C 297 240.402344 307.816406 240.3125 321.164062 240.3125 C 334.515625 240.3125 345.292969 240.394531 345.292969 240.503906 Z M 345.292969 240.503906 " fill-opacity="1" fill-rule="nonzero"/><path fill="#e0e0e0" d="M 345.292969 247.652344 C 345.292969 247.757812 334.46875 247.847656 321.136719 247.847656 C 307.800781 247.847656 296.96875 247.757812 296.96875 247.652344 C 296.96875 247.546875 307.785156 247.457031 321.136719 247.457031 C 334.484375 247.457031 345.292969 247.546875 345.292969 247.652344 Z M 345.292969 247.652344 " fill-opacity="1" fill-rule="nonzero"/><path fill="#e0e0e0" d="M 364.199219 254.800781 C 364.199219 254.914062 353.378906 254.996094 340.042969 254.996094 C 326.707031 254.996094 315.878906 254.914062 315.878906 254.800781 C 315.878906 254.6875 326.691406 254.605469 340.042969 254.605469 C 353.390625 254.605469 364.199219 254.695312 364.199219 254.800781 Z M 364.199219 254.800781 " fill-opacity="1" fill-rule="nonzero"/><path fill="#e0e0e0" d="M 423.238281 254.800781 C 423.238281 254.914062 412.425781 254.996094 399.082031 254.996094 C 385.738281 254.996094 374.925781 254.914062 374.925781 254.800781 C 374.925781 254.6875 385.738281 254.605469 399.082031 254.605469 C 412.425781 254.605469 423.238281 254.695312 423.238281 254.800781 Z M 423.238281 254.800781 " fill-opacity="1" fill-rule="nonzero"/><path fill="#fafafa" d="M 402.703125 240.503906 C 402.703125 240.609375 391.890625 240.699219 378.546875 240.699219 C 365.203125 240.699219 354.390625 240.609375 354.390625 240.503906 C 354.390625 240.402344 365.203125 240.3125 378.546875 240.3125 C 391.890625 240.3125 402.703125 240.394531 402.703125 240.503906 Z M 402.703125 240.503906 " fill-opacity="1" fill-rule="nonzero"/><path fill="#455a64" d="M 429.421875 247.652344 C 429.421875 247.757812 412.621094 247.847656 391.921875 247.847656 C 371.21875 247.847656 354.421875 247.757812 354.421875 247.652344 C 354.421875 247.546875 371.210938 247.457031 391.921875 247.457031 C 412.628906 247.457031 429.421875 247.546875 429.421875 247.652344 Z M 429.421875 247.652344 " fill-opacity="1" fill-rule="nonzero"/><path fill="#fafafa" d="M 306.140625 254.800781 C 306.140625 254.914062 302.21875 254.996094 297.382812 254.996094 C 292.546875 254.996094 288.621094 254.914062 288.621094 254.800781 C 288.621094 254.6875 292.546875 254.605469 297.382812 254.605469 C 302.21875 254.605469 306.140625 254.695312 306.140625 254.800781 Z M 306.140625 254.800781 " fill-opacity="1" fill-rule="nonzero"/><path fill="#5e17eb" d="M 446.585938 254.800781 C 446.585938 254.914062 442.664062 254.996094 437.828125 254.996094 C 432.988281 254.996094 429.066406 254.914062 429.066406 254.800781 C 429.066406 254.6875 432.988281 254.605469 437.828125 254.605469 C 442.664062 254.605469 446.585938 254.695312 446.585938 254.800781 Z M 446.585938 254.800781 " fill-opacity="1" fill-rule="nonzero"/><path fill="#5e17eb" d="M 489.488281 277.316406 C 489.34375 277.398438 488.078125 275.289062 485.519531 271.675781 C 484.246094 269.867188 482.632812 267.691406 480.628906 265.277344 C 478.375 262.542969 475.925781 259.992188 473.289062 257.621094 C 471.765625 256.25 470.152344 255 468.441406 253.871094 C 466.640625 252.640625 464.683594 251.761719 462.570312 251.230469 C 461.519531 250.976562 460.464844 250.960938 459.40625 251.1875 C 458.355469 251.441406 457.496094 251.996094 456.824219 252.84375 C 456.121094 253.757812 455.648438 254.777344 455.40625 255.902344 C 455.121094 257.105469 454.972656 258.320312 454.957031 259.554688 C 454.957031 262.183594 455.242188 264.78125 455.8125 267.347656 C 456.386719 270.050781 457.136719 272.707031 458.0625 275.3125 C 462.089844 286.40625 467.902344 296.46875 475.5 305.5 C 477.292969 307.605469 479.214844 309.589844 481.261719 311.449219 C 483.199219 313.226562 485.304688 314.773438 487.582031 316.089844 C 488.660156 316.691406 489.789062 317.171875 490.972656 317.53125 C 492.070312 317.878906 493.191406 317.980469 494.332031 317.832031 C 495.402344 317.671875 496.3125 317.199219 497.054688 316.414062 C 497.78125 315.613281 498.296875 314.695312 498.601562 313.660156 C 499.199219 311.5625 499.414062 309.429688 499.246094 307.253906 C 499.132812 305.210938 498.867188 303.191406 498.441406 301.1875 C 497.699219 297.71875 496.699219 294.324219 495.441406 291.003906 C 494.355469 288.0625 493.273438 285.582031 492.351562 283.570312 C 490.5 279.542969 489.308594 277.398438 489.449219 277.316406 C 489.863281 277.753906 490.210938 278.242188 490.5 278.769531 C 491.113281 279.769531 492 281.261719 493.035156 283.234375 C 494.070312 285.207031 495.285156 287.664062 496.460938 290.605469 C 497.835938 293.949219 498.933594 297.382812 499.753906 300.902344 C 500.238281 302.964844 500.558594 305.054688 500.714844 307.164062 C 500.933594 309.53125 500.730469 311.855469 500.109375 314.148438 C 499.742188 315.429688 499.117188 316.566406 498.234375 317.5625 C 497.242188 318.636719 496.023438 319.289062 494.578125 319.519531 C 493.183594 319.730469 491.8125 319.632812 490.460938 319.226562 C 489.15625 318.84375 487.90625 318.324219 486.710938 317.664062 C 484.296875 316.308594 482.0625 314.703125 480.007812 312.84375 C 477.871094 310.941406 475.871094 308.910156 474.007812 306.746094 C 466.210938 297.578125 460.289062 287.328125 456.234375 275.996094 C 455.296875 273.296875 454.546875 270.546875 453.984375 267.746094 C 453.398438 265.027344 453.121094 262.277344 453.148438 259.496094 C 453.179688 258.128906 453.359375 256.78125 453.691406 255.453125 C 454.007812 254.066406 454.609375 252.816406 455.488281 251.703125 C 456.417969 250.574219 457.589844 249.847656 459.015625 249.519531 C 460.320312 249.25 461.621094 249.277344 462.914062 249.601562 C 465.207031 250.210938 467.324219 251.199219 469.261719 252.566406 C 471.011719 253.761719 472.660156 255.082031 474.210938 256.527344 C 476.855469 259.019531 479.285156 261.710938 481.5 264.597656 C 483.449219 267.109375 484.980469 269.367188 486.171875 271.25 C 487.363281 273.128906 488.21875 274.644531 488.765625 275.679688 C 489.078125 276.195312 489.320312 276.738281 489.488281 277.316406 Z M 489.488281 277.316406 " fill-opacity="1" fill-rule="nonzero"/><path fill="#5e17eb" d="M 466.328125 277.269531 C 466.460938 277.351562 465.246094 279.402344 463.328125 283.269531 C 462.382812 285.191406 461.273438 287.566406 460.15625 290.386719 C 458.878906 293.570312 457.859375 296.835938 457.101562 300.183594 C 456.664062 302.109375 456.386719 304.0625 456.261719 306.035156 C 456.085938 308.128906 456.285156 310.191406 456.863281 312.214844 C 457.164062 313.214844 457.664062 314.109375 458.363281 314.890625 C 459.078125 315.652344 459.949219 316.136719 460.972656 316.347656 C 462.066406 316.558594 463.152344 316.527344 464.234375 316.253906 C 465.398438 315.988281 466.511719 315.585938 467.578125 315.054688 C 469.847656 313.914062 471.957031 312.523438 473.902344 310.894531 C 475.960938 309.1875 477.894531 307.355469 479.707031 305.386719 C 487.394531 296.945312 493.300781 287.398438 497.429688 276.753906 C 498.382812 274.253906 499.160156 271.703125 499.761719 269.097656 C 500.355469 266.628906 500.65625 264.128906 500.671875 261.597656 C 500.667969 260.40625 500.527344 259.230469 500.25 258.070312 C 500.011719 256.980469 499.554688 255.996094 498.878906 255.109375 C 498.230469 254.28125 497.40625 253.71875 496.402344 253.421875 C 495.390625 253.152344 494.371094 253.105469 493.34375 253.285156 C 491.277344 253.671875 489.34375 254.410156 487.546875 255.5 C 485.835938 256.496094 484.21875 257.617188 482.683594 258.867188 C 480.03125 261.039062 477.5625 263.40625 475.28125 265.96875 C 473.257812 268.21875 471.621094 270.28125 470.324219 271.96875 C 467.730469 275.375 466.441406 277.375 466.304688 277.292969 C 466.472656 276.730469 466.722656 276.210938 467.054688 275.726562 C 467.617188 274.742188 468.480469 273.304688 469.703125 271.527344 C 471.179688 269.351562 472.761719 267.257812 474.449219 265.242188 C 476.6875 262.546875 479.140625 260.0625 481.800781 257.785156 C 483.359375 256.449219 485.015625 255.25 486.773438 254.1875 C 488.722656 252.957031 490.828125 252.117188 493.085938 251.664062 C 494.347656 251.4375 495.597656 251.484375 496.835938 251.800781 C 498.1875 252.183594 499.300781 252.921875 500.183594 254.011719 C 501.027344 255.085938 501.609375 256.285156 501.929688 257.613281 C 502.25 258.902344 502.421875 260.214844 502.441406 261.542969 C 502.472656 264.214844 502.195312 266.851562 501.609375 269.457031 C 501.003906 272.148438 500.214844 274.789062 499.246094 277.375 C 495.066406 288.277344 489.03125 298.027344 481.132812 306.625 C 479.261719 308.648438 477.261719 310.53125 475.132812 312.28125 C 473.050781 313.988281 470.800781 315.433594 468.382812 316.617188 C 467.183594 317.195312 465.933594 317.625 464.632812 317.914062 C 463.304688 318.222656 461.972656 318.238281 460.636719 317.957031 C 459.265625 317.660156 458.109375 316.992188 457.164062 315.957031 C 456.316406 314.984375 455.714844 313.878906 455.355469 312.640625 C 454.753906 310.425781 454.566406 308.175781 454.792969 305.890625 C 454.960938 303.84375 455.292969 301.824219 455.796875 299.832031 C 456.648438 296.433594 457.777344 293.128906 459.1875 289.921875 C 460.238281 287.515625 461.402344 285.164062 462.691406 282.875 C 463.738281 280.984375 464.640625 279.574219 465.269531 278.628906 C 465.898438 277.683594 466.265625 277.234375 466.328125 277.269531 Z M 466.328125 277.269531 " fill-opacity="1" fill-rule="nonzero"/><path fill="#5e17eb" d="M 476.429688 268.636719 C 476.429688 268.804688 474.046875 268.839844 469.777344 269.253906 C 467.648438 269.464844 465.046875 269.777344 462.058594 270.304688 C 458.679688 270.898438 455.367188 271.753906 452.121094 272.867188 C 450.253906 273.511719 448.449219 274.300781 446.707031 275.230469 C 444.832031 276.179688 443.183594 277.429688 441.765625 278.980469 C 441.070312 279.761719 440.570312 280.652344 440.265625 281.652344 C 439.996094 282.664062 440.039062 283.664062 440.398438 284.652344 C 440.800781 285.691406 441.398438 286.601562 442.191406 287.378906 C 443.035156 288.222656 443.964844 288.957031 444.976562 289.585938 C 447.140625 290.914062 449.425781 291.976562 451.835938 292.773438 C 454.375 293.628906 456.957031 294.308594 459.585938 294.8125 C 470.808594 296.910156 482.03125 296.910156 493.253906 294.8125 C 495.882812 294.3125 498.464844 293.636719 501 292.78125 C 503.414062 291.984375 505.703125 290.921875 507.871094 289.59375 C 508.882812 288.964844 509.808594 288.230469 510.652344 287.386719 C 511.449219 286.609375 512.046875 285.699219 512.445312 284.660156 C 512.804688 283.671875 512.851562 282.671875 512.578125 281.660156 C 512.273438 280.660156 511.773438 279.769531 511.078125 278.988281 C 509.664062 277.4375 508.015625 276.183594 506.136719 275.238281 C 504.398438 274.300781 502.59375 273.515625 500.722656 272.875 C 497.476562 271.761719 494.164062 270.90625 490.785156 270.3125 C 487.785156 269.785156 485.199219 269.472656 483.066406 269.261719 C 478.800781 268.847656 476.414062 268.8125 476.421875 268.644531 C 476.988281 268.5 477.5625 268.4375 478.148438 268.464844 C 479.28125 268.429688 480.960938 268.40625 483.121094 268.503906 C 485.28125 268.601562 487.914062 268.804688 490.957031 269.253906 C 494.425781 269.738281 497.828125 270.515625 501.164062 271.578125 C 503.121094 272.203125 505.011719 272.984375 506.84375 273.917969 C 508.914062 274.925781 510.738281 276.273438 512.308594 277.960938 C 513.171875 278.917969 513.796875 280.007812 514.175781 281.238281 C 514.558594 282.585938 514.519531 283.921875 514.058594 285.242188 C 513.59375 286.527344 512.878906 287.65625 511.914062 288.625 C 510.988281 289.582031 509.960938 290.414062 508.835938 291.125 C 506.5625 292.554688 504.152344 293.703125 501.609375 294.566406 C 498.996094 295.46875 496.335938 296.1875 493.628906 296.71875 C 482.15625 298.917969 470.683594 298.917969 459.210938 296.71875 C 456.5 296.1875 453.839844 295.46875 451.230469 294.566406 C 448.683594 293.703125 446.273438 292.554688 444 291.125 C 442.875 290.410156 441.851562 289.578125 440.925781 288.625 C 439.957031 287.65625 439.242188 286.53125 438.78125 285.242188 C 438.316406 283.921875 438.277344 282.585938 438.660156 281.238281 C 439.042969 280.007812 439.667969 278.917969 440.527344 277.960938 C 442.101562 276.277344 443.921875 274.929688 445.996094 273.917969 C 447.824219 272.984375 449.714844 272.207031 451.671875 271.585938 C 455.007812 270.515625 458.410156 269.738281 461.878906 269.253906 C 464.925781 268.816406 467.566406 268.617188 469.71875 268.503906 C 471.871094 268.390625 473.558594 268.429688 474.691406 268.464844 C 475.277344 268.4375 475.859375 268.492188 476.429688 268.636719 Z M 476.429688 268.636719 " fill-opacity="1" fill-rule="nonzero"/><path fill="#5e17eb" d="M 479.28125 278.464844 C 479.6875 278.53125 480.082031 278.636719 480.46875 278.78125 C 480.855469 278.925781 481.222656 279.105469 481.574219 279.324219 C 481.925781 279.539062 482.25 279.789062 482.550781 280.070312 C 482.855469 280.351562 483.125 280.660156 483.367188 280.992188 C 483.605469 281.328125 483.8125 281.683594 483.984375 282.058594 C 484.15625 282.433594 484.289062 282.820312 484.382812 283.222656 C 484.476562 283.625 484.53125 284.03125 484.546875 284.441406 C 484.558594 284.855469 484.535156 285.261719 484.46875 285.671875 C 484.402344 286.078125 484.296875 286.472656 484.152344 286.859375 C 484.007812 287.246094 483.828125 287.613281 483.609375 287.964844 C 483.394531 288.316406 483.144531 288.640625 482.863281 288.941406 C 482.582031 289.242188 482.273438 289.515625 481.941406 289.757812 C 481.605469 289.996094 481.25 290.203125 480.875 290.375 C 480.5 290.542969 480.113281 290.675781 479.710938 290.773438 C 479.308594 290.867188 478.902344 290.921875 478.492188 290.9375 C 478.078125 290.949219 477.671875 290.925781 477.265625 290.859375 C 476.855469 290.792969 476.460938 290.6875 476.074219 290.542969 C 475.6875 290.398438 475.320312 290.21875 474.96875 290 C 474.617188 289.785156 474.292969 289.535156 473.992188 289.253906 C 473.691406 288.972656 473.417969 288.664062 473.175781 288.332031 C 472.9375 287.996094 472.730469 287.640625 472.558594 287.265625 C 472.390625 286.890625 472.257812 286.503906 472.160156 286.101562 C 472.066406 285.699219 472.011719 285.292969 471.996094 284.882812 C 471.984375 284.46875 472.007812 284.0625 472.074219 283.652344 C 472.140625 283.246094 472.246094 282.851562 472.390625 282.464844 C 472.535156 282.078125 472.714844 281.710938 472.933594 281.359375 C 473.148438 281.007812 473.398438 280.683594 473.679688 280.382812 C 473.960938 280.082031 474.269531 279.808594 474.601562 279.566406 C 474.9375 279.328125 475.292969 279.121094 475.667969 278.949219 C 476.042969 278.777344 476.429688 278.648438 476.832031 278.550781 C 477.234375 278.457031 477.640625 278.402344 478.050781 278.386719 C 478.464844 278.375 478.871094 278.398438 479.28125 278.464844 Z M 479.28125 278.464844 " fill-opacity="1" fill-rule="nonzero"/><g clip-path="url(#c6f59420ef)"><path fill="#455a64" d="M 151.597656 219.558594 L 374.683594 219.558594 C 375.015625 219.558594 375.34375 219.589844 375.671875 219.65625 C 375.996094 219.71875 376.3125 219.816406 376.621094 219.941406 C 376.925781 220.070312 377.21875 220.226562 377.492188 220.410156 C 377.769531 220.59375 378.023438 220.804688 378.257812 221.039062 C 378.492188 221.273438 378.703125 221.527344 378.886719 221.804688 C 379.074219 222.082031 379.226562 222.371094 379.355469 222.679688 C 379.480469 222.984375 379.578125 223.300781 379.644531 223.628906 C 379.707031 223.953125 379.738281 224.28125 379.738281 224.613281 L 379.738281 363.363281 C 379.738281 364.082031 379.671875 364.792969 379.53125 365.496094 C 379.390625 366.199219 379.183594 366.882812 378.90625 367.546875 C 378.632812 368.207031 378.296875 368.835938 377.898438 369.433594 C 377.5 370.03125 377.046875 370.582031 376.539062 371.089844 C 376.03125 371.597656 375.480469 372.050781 374.882812 372.449219 C 374.285156 372.847656 373.65625 373.183594 372.996094 373.457031 C 372.332031 373.734375 371.648438 373.941406 370.945312 374.082031 C 370.242188 374.222656 369.53125 374.289062 368.8125 374.289062 L 156.710938 374.289062 C 155.996094 374.289062 155.285156 374.222656 154.582031 374.082031 C 153.875 373.941406 153.195312 373.734375 152.53125 373.457031 C 151.867188 373.183594 151.238281 372.847656 150.640625 372.449219 C 150.042969 372.050781 149.492188 371.597656 148.984375 371.089844 C 148.476562 370.582031 148.023438 370.03125 147.625 369.433594 C 147.226562 368.835938 146.890625 368.207031 146.617188 367.546875 C 146.34375 366.882812 146.136719 366.199219 145.996094 365.496094 C 145.855469 364.792969 145.785156 364.082031 145.785156 363.363281 L 145.785156 225.363281 C 145.785156 224.980469 145.824219 224.605469 145.898438 224.230469 C 145.972656 223.855469 146.082031 223.492188 146.230469 223.140625 C 146.375 222.789062 146.554688 222.453125 146.765625 222.136719 C 146.980469 221.820312 147.21875 221.527344 147.488281 221.257812 C 147.761719 220.988281 148.054688 220.746094 148.371094 220.535156 C 148.6875 220.324219 149.023438 220.144531 149.375 220 C 149.726562 219.855469 150.089844 219.742188 150.464844 219.667969 C 150.839844 219.59375 151.214844 219.558594 151.597656 219.558594 Z M 151.597656 219.558594 " fill-opacity="1" fill-rule="nonzero"/></g><g clip-path="url(#b8919b029e)"><path fill="#455a64" d="M 136.003906 362.832031 L 389.503906 362.832031 L 389.503906 366.078125 C 389.503906 366.753906 389.4375 367.421875 389.308594 368.085938 C 389.175781 368.75 388.980469 369.390625 388.722656 370.015625 C 388.464844 370.640625 388.144531 371.234375 387.769531 371.796875 C 387.394531 372.355469 386.96875 372.875 386.492188 373.355469 C 386.011719 373.832031 385.492188 374.257812 384.933594 374.632812 C 384.371094 375.007812 383.777344 375.328125 383.152344 375.585938 C 382.527344 375.84375 381.886719 376.039062 381.222656 376.171875 C 380.558594 376.300781 379.890625 376.367188 379.214844 376.367188 L 146.296875 376.367188 C 145.621094 376.367188 144.949219 376.300781 144.289062 376.171875 C 143.625 376.039062 142.980469 375.84375 142.355469 375.585938 C 141.734375 375.328125 141.140625 375.007812 140.578125 374.632812 C 140.015625 374.257812 139.496094 373.832031 139.019531 373.355469 C 138.542969 372.875 138.113281 372.355469 137.738281 371.796875 C 137.363281 371.234375 137.046875 370.640625 136.789062 370.015625 C 136.53125 369.390625 136.335938 368.75 136.203125 368.085938 C 136.070312 367.421875 136.003906 366.753906 136.003906 366.078125 Z M 136.003906 362.832031 " fill-opacity="1" fill-rule="nonzero"/></g><path fill="#e0e0e0" d="M 152.0625 225.707031 L 372.800781 225.707031 L 372.800781 356.359375 L 152.0625 356.359375 Z M 152.0625 225.707031 " fill-opacity="1" fill-rule="nonzero"/><path fill="#263238" d="M 239.699219 362.832031 L 242.84375 367.832031 L 287.101562 367.832031 L 290.023438 362.832031 Z M 239.699219 362.832031 " fill-opacity="1" fill-rule="nonzero"/><path fill="#263238" d="M 145.824219 362.777344 L 379.777344 362.777344 L 379.777344 363.519531 L 145.824219 363.519531 Z M 145.824219 362.777344 " fill-opacity="1" fill-rule="nonzero"/><path fill="#263238" d="M 158.617188 233.277344 L 366.789062 233.277344 L 366.789062 356.359375 L 158.617188 356.359375 Z M 158.617188 233.277344 " fill-opacity="1" fill-rule="nonzero"/><path fill="#e0e0e0" d="M 174.585938 352.742188 C 174.480469 352.742188 174.390625 326.53125 174.390625 294.199219 C 174.390625 261.867188 174.480469 235.652344 174.585938 235.652344 C 174.691406 235.652344 174.75 261.859375 174.75 294.207031 C 174.75 326.554688 174.691406 352.742188 174.585938 352.742188 Z M 174.585938 352.742188 " fill-opacity="1" fill-rule="nonzero"/><path fill="#e0e0e0" d="M 170.386719 246.265625 C 169.265625 246.464844 168.136719 246.527344 167.003906 246.460938 C 165.867188 246.527344 164.738281 246.464844 163.621094 246.265625 C 165.871094 246.007812 168.121094 246.007812 170.371094 246.265625 Z M 170.386719 246.265625 " fill-opacity="1" fill-rule="nonzero"/><path fill="#e0e0e0" d="M 170.648438 239.621094 C 169.527344 239.816406 168.398438 239.882812 167.265625 239.816406 C 166.128906 239.882812 165.003906 239.816406 163.882812 239.621094 C 166.132812 239.359375 168.382812 239.359375 170.632812 239.621094 Z M 170.648438 239.621094 " fill-opacity="1" fill-rule="nonzero"/><path fill="#e0e0e0" d="M 170.386719 253.429688 C 168.136719 253.6875 165.886719 253.6875 163.636719 253.429688 C 165.886719 253.167969 168.136719 253.167969 170.386719 253.429688 Z M 170.386719 253.429688 " fill-opacity="1" fill-rule="nonzero"/><path fill="#e0e0e0" d="M 170.386719 260.589844 C 168.136719 260.851562 165.886719 260.851562 163.636719 260.589844 C 164.753906 260.394531 165.882812 260.328125 167.015625 260.394531 C 168.148438 260.328125 169.269531 260.394531 170.386719 260.589844 Z M 170.386719 260.589844 " fill-opacity="1" fill-rule="nonzero"/><path fill="#e0e0e0" d="M 170.386719 267.753906 C 168.136719 268.011719 165.886719 268.011719 163.636719 267.753906 C 164.753906 267.554688 165.882812 267.492188 167.015625 267.558594 C 168.148438 267.492188 169.269531 267.558594 170.386719 267.753906 Z M 170.386719 267.753906 " fill-opacity="1" fill-rule="nonzero"/><path fill="#e0e0e0" d="M 170.386719 274.914062 C 168.136719 275.175781 165.886719 275.175781 163.636719 274.914062 C 164.753906 274.71875 165.882812 274.652344 167.015625 274.722656 C 168.148438 274.65625 169.269531 274.71875 170.386719 274.914062 Z M 170.386719 274.914062 " fill-opacity="1" fill-rule="nonzero"/><path fill="#e0e0e0" d="M 170.386719 282.070312 C 169.265625 282.273438 168.136719 282.339844 167.003906 282.273438 C 165.867188 282.339844 164.738281 282.273438 163.621094 282.070312 C 165.871094 281.8125 168.121094 281.8125 170.371094 282.070312 Z M 170.386719 282.070312 " fill-opacity="1" fill-rule="nonzero"/><path fill="#e0e0e0" d="M 170.386719 289.234375 C 169.265625 289.429688 168.136719 289.496094 167.003906 289.429688 C 165.867188 289.496094 164.738281 289.429688 163.621094 289.234375 C 165.871094 288.972656 168.121094 288.972656 170.371094 289.234375 Z M 170.386719 289.234375 " fill-opacity="1" fill-rule="nonzero"/><path fill="#e0e0e0" d="M 170.386719 296.394531 C 169.265625 296.59375 168.136719 296.65625 167.003906 296.589844 C 165.867188 296.65625 164.738281 296.59375 163.621094 296.394531 C 165.871094 296.136719 168.121094 296.136719 170.371094 296.394531 Z M 170.386719 296.394531 " fill-opacity="1" fill-rule="nonzero"/><path fill="#e0e0e0" d="M 170.386719 303.558594 C 169.265625 303.753906 168.136719 303.820312 167.003906 303.753906 C 165.867188 303.820312 164.738281 303.753906 163.621094 303.558594 C 165.871094 303.296875 168.121094 303.296875 170.371094 303.558594 Z M 170.386719 303.558594 " fill-opacity="1" fill-rule="nonzero"/><path fill="#e0e0e0" d="M 170.386719 310.707031 C 168.136719 310.964844 165.886719 310.964844 163.636719 310.707031 C 165.886719 310.445312 168.136719 310.445312 170.386719 310.707031 Z M 170.386719 310.707031 " fill-opacity="1" fill-rule="nonzero"/><path fill="#e0e0e0" d="M 170.386719 317.882812 C 168.136719 318.144531 165.886719 318.144531 163.636719 317.882812 C 164.753906 317.6875 165.882812 317.621094 167.015625 317.6875 C 168.148438 317.621094 169.269531 317.6875 170.386719 317.882812 Z M 170.386719 317.882812 " fill-opacity="1" fill-rule="nonzero"/><path fill="#e0e0e0" d="M 170.386719 325.046875 C 168.136719 325.304688 165.886719 325.304688 163.636719 325.046875 C 164.753906 324.847656 165.882812 324.785156 167.015625 324.851562 C 168.148438 324.785156 169.269531 324.847656 170.386719 325.046875 Z M 170.386719 325.046875 " fill-opacity="1" fill-rule="nonzero"/><path fill="#e0e0e0" d="M 170.386719 332.207031 C 168.136719 332.46875 165.886719 332.46875 163.636719 332.207031 C 164.753906 332.011719 165.882812 331.945312 167.015625 332.011719 C 168.148438 331.945312 169.269531 332.011719 170.386719 332.207031 Z M 170.386719 332.207031 " fill-opacity="1" fill-rule="nonzero"/><path fill="#e0e0e0" d="M 170.386719 339.371094 C 168.136719 339.628906 165.886719 339.628906 163.636719 339.371094 C 164.753906 339.167969 165.882812 339.101562 167.015625 339.167969 C 168.148438 339.101562 169.269531 339.167969 170.386719 339.371094 Z M 170.386719 339.371094 " fill-opacity="1" fill-rule="nonzero"/><path fill="#e0e0e0" d="M 170.386719 346.527344 C 169.265625 346.722656 168.136719 346.789062 167.003906 346.722656 C 165.867188 346.789062 164.738281 346.722656 163.621094 346.527344 C 165.871094 346.265625 168.121094 346.265625 170.371094 346.527344 Z M 170.386719 346.527344 " fill-opacity="1" fill-rule="nonzero"/><path fill="#5e17eb" d="M 197.496094 245.847656 C 197.496094 245.949219 193.566406 246.039062 188.722656 246.039062 C 183.878906 246.039062 179.941406 245.949219 179.941406 245.847656 C 179.941406 245.742188 183.871094 245.652344 188.722656 245.652344 C 193.574219 245.652344 197.496094 245.734375 197.496094 245.847656 Z M 197.496094 245.847656 " fill-opacity="1" fill-rule="nonzero"/><path fill="#5e17eb" d="M 197.496094 346.527344 C 197.496094 346.636719 193.566406 346.722656 188.722656 346.722656 C 183.878906 346.722656 179.941406 346.636719 179.941406 346.527344 C 179.941406 346.414062 183.871094 346.332031 188.722656 346.332031 C 193.574219 346.332031 197.496094 346.421875 197.496094 346.527344 Z M 197.496094 346.527344 " fill-opacity="1" fill-rule="nonzero"/><path fill="#5e17eb" d="M 221.941406 260.589844 C 221.941406 260.695312 214.582031 260.785156 205.515625 260.785156 C 196.449219 260.785156 189.097656 260.695312 189.097656 260.589844 C 189.097656 260.484375 196.449219 260.394531 205.515625 260.394531 C 214.582031 260.394531 221.941406 260.457031 221.941406 260.589844 Z M 221.941406 260.589844 " fill-opacity="1" fill-rule="nonzero"/><path fill="#e0e0e0" d="M 259.914062 260.589844 C 259.914062 260.695312 252.554688 260.785156 243.488281 260.785156 C 234.421875 260.785156 227.070312 260.695312 227.070312 260.589844 C 227.070312 260.484375 234.421875 260.394531 243.488281 260.394531 C 252.554688 260.394531 259.914062 260.457031 259.914062 260.589844 Z M 259.914062 260.589844 " fill-opacity="1" fill-rule="nonzero"/><path fill="#e0e0e0" d="M 245.398438 267.753906 C 245.398438 267.859375 234.5625 267.949219 221.199219 267.949219 C 207.832031 267.949219 197.003906 267.859375 197.003906 267.753906 C 197.003906 267.648438 207.832031 267.558594 221.199219 267.558594 C 234.5625 267.558594 245.398438 267.640625 245.398438 267.753906 Z M 245.398438 267.753906 " fill-opacity="1" fill-rule="nonzero"/><path fill="#e0e0e0" d="M 245.398438 274.914062 C 245.398438 275.019531 234.5625 275.109375 221.199219 275.109375 C 207.832031 275.109375 197.003906 275.019531 197.003906 274.914062 C 197.003906 274.8125 207.832031 274.722656 221.199219 274.722656 C 234.5625 274.722656 245.398438 274.804688 245.398438 274.914062 Z M 245.398438 274.914062 " fill-opacity="1" fill-rule="nonzero"/><path fill="#e0e0e0" d="M 278.707031 296.394531 C 278.707031 296.507812 267.878906 296.589844 254.511719 296.589844 C 241.148438 296.589844 230.308594 296.507812 230.308594 296.394531 C 230.308594 296.285156 241.148438 296.199219 254.511719 296.199219 C 267.878906 296.199219 278.707031 296.289062 278.707031 296.394531 Z M 278.707031 296.394531 " fill-opacity="1" fill-rule="nonzero"/><path fill="#e0e0e0" d="M 264.335938 282.070312 C 264.335938 282.183594 253.5 282.273438 240.136719 282.273438 C 226.769531 282.273438 215.941406 282.183594 215.941406 282.070312 C 215.941406 281.957031 226.769531 281.875 240.136719 281.875 C 253.5 281.875 264.335938 281.964844 264.335938 282.070312 Z M 264.335938 282.070312 " fill-opacity="1" fill-rule="nonzero"/><path fill="#e0e0e0" d="M 323.476562 282.070312 C 323.476562 282.183594 312.636719 282.273438 299.28125 282.273438 C 285.921875 282.273438 275.078125 282.183594 275.078125 282.070312 C 275.078125 281.957031 285.914062 281.875 299.28125 281.875 C 312.644531 281.875 323.476562 281.964844 323.476562 282.070312 Z M 323.476562 282.070312 " fill-opacity="1" fill-rule="nonzero"/><path fill="#fafafa" d="M 302.910156 267.753906 C 302.910156 267.859375 292.074219 267.949219 278.707031 267.949219 C 265.34375 267.949219 254.511719 267.859375 254.511719 267.753906 C 254.511719 267.648438 265.34375 267.558594 278.707031 267.558594 C 292.074219 267.558594 302.910156 267.640625 302.910156 267.753906 Z M 302.910156 267.753906 " fill-opacity="1" fill-rule="nonzero"/><path fill="#fafafa" d="M 336.335938 296.394531 C 336.335938 296.507812 325.5 296.589844 312.140625 296.589844 C 298.785156 296.589844 287.941406 296.507812 287.941406 296.394531 C 287.941406 296.285156 298.777344 296.199219 312.140625 296.199219 C 325.507812 296.199219 336.335938 296.289062 336.335938 296.394531 Z M 336.335938 296.394531 " fill-opacity="1" fill-rule="nonzero"/><path fill="#455a64" d="M 329.664062 274.914062 C 329.664062 275.019531 312.839844 275.109375 292.085938 275.109375 C 271.335938 275.109375 254.511719 275.019531 254.511719 274.914062 C 254.511719 274.8125 271.335938 274.722656 292.085938 274.722656 C 312.839844 274.722656 329.664062 274.804688 329.664062 274.914062 Z M 329.664062 274.914062 " fill-opacity="1" fill-rule="nonzero"/><path fill="#fafafa" d="M 197.496094 253.429688 C 197.496094 253.535156 193.566406 253.625 188.722656 253.625 C 183.878906 253.625 179.941406 253.535156 179.941406 253.429688 C 179.941406 253.324219 183.871094 253.234375 188.722656 253.234375 C 193.574219 253.234375 197.496094 253.324219 197.496094 253.429688 Z M 197.496094 253.429688 " fill-opacity="1" fill-rule="nonzero"/><path fill="#fafafa" d="M 197.496094 339.371094 C 197.496094 339.476562 193.566406 339.566406 188.722656 339.566406 C 183.878906 339.566406 179.941406 339.476562 179.941406 339.371094 C 179.941406 339.265625 183.871094 339.167969 188.722656 339.167969 C 193.574219 339.167969 197.496094 339.257812 197.496094 339.371094 Z M 197.496094 339.371094 " fill-opacity="1" fill-rule="nonzero"/><path fill="#fafafa" d="M 206.191406 282.070312 C 206.191406 282.183594 202.261719 282.273438 197.414062 282.273438 C 192.570312 282.273438 188.640625 282.183594 188.640625 282.070312 C 188.640625 281.957031 192.5625 281.875 197.414062 281.875 C 202.265625 281.875 206.191406 281.964844 206.191406 282.070312 Z M 206.191406 282.070312 " fill-opacity="1" fill-rule="nonzero"/><path fill="#5e17eb" d="M 346.859375 282.070312 C 346.859375 282.183594 342.929688 282.273438 338.085938 282.273438 C 333.238281 282.273438 329.308594 282.183594 329.308594 282.070312 C 329.308594 281.957031 333.234375 281.875 338.085938 281.875 C 342.9375 281.875 346.859375 281.964844 346.859375 282.070312 Z M 346.859375 282.070312 " fill-opacity="1" fill-rule="nonzero"/><path fill="#5e17eb" d="M 221.941406 310.707031 C 221.941406 310.816406 214.582031 310.902344 205.515625 310.902344 C 196.449219 310.902344 189.097656 310.816406 189.097656 310.707031 C 189.097656 310.59375 196.449219 310.511719 205.515625 310.511719 C 214.582031 310.511719 221.941406 310.570312 221.941406 310.707031 Z M 221.941406 310.707031 " fill-opacity="1" fill-rule="nonzero"/><path fill="#e0e0e0" d="M 259.914062 310.707031 C 259.914062 310.816406 252.554688 310.902344 243.488281 310.902344 C 234.421875 310.902344 227.070312 310.816406 227.070312 310.707031 C 227.070312 310.59375 234.421875 310.511719 243.488281 310.511719 C 252.554688 310.511719 259.914062 310.570312 259.914062 310.707031 Z M 259.914062 310.707031 " fill-opacity="1" fill-rule="nonzero"/><path fill="#e0e0e0" d="M 245.398438 317.839844 C 245.398438 317.949219 234.5625 318.035156 221.199219 318.035156 C 207.832031 318.035156 197.003906 317.949219 197.003906 317.839844 C 197.003906 317.726562 207.832031 317.644531 221.199219 317.644531 C 234.5625 317.644531 245.398438 317.734375 245.398438 317.839844 Z M 245.398438 317.839844 " fill-opacity="1" fill-rule="nonzero"/><path fill="#e0e0e0" d="M 245.398438 325 C 245.398438 325.113281 234.5625 325.195312 221.199219 325.195312 C 207.832031 325.195312 197.003906 325.113281 197.003906 325 C 197.003906 324.886719 207.832031 324.804688 221.199219 324.804688 C 234.5625 324.804688 245.398438 324.894531 245.398438 325 Z M 245.398438 325 " fill-opacity="1" fill-rule="nonzero"/><path fill="#e0e0e0" d="M 264.335938 332.164062 C 264.335938 332.269531 253.5 332.359375 240.136719 332.359375 C 226.769531 332.359375 215.941406 332.269531 215.941406 332.164062 C 215.941406 332.058594 226.769531 331.96875 240.136719 331.96875 C 253.5 331.96875 264.335938 332.058594 264.335938 332.164062 Z M 264.335938 332.164062 " fill-opacity="1" fill-rule="nonzero"/><path fill="#e0e0e0" d="M 323.476562 332.164062 C 323.476562 332.269531 312.636719 332.359375 299.28125 332.359375 C 285.921875 332.359375 275.078125 332.269531 275.078125 332.164062 C 275.078125 332.058594 285.914062 331.96875 299.28125 331.96875 C 312.644531 331.96875 323.476562 332.058594 323.476562 332.164062 Z M 323.476562 332.164062 " fill-opacity="1" fill-rule="nonzero"/><path fill="#fafafa" d="M 302.910156 317.839844 C 302.910156 317.949219 292.074219 318.035156 278.707031 318.035156 C 265.34375 318.035156 254.511719 317.949219 254.511719 317.839844 C 254.511719 317.726562 265.34375 317.644531 278.707031 317.644531 C 292.074219 317.644531 302.910156 317.734375 302.910156 317.839844 Z M 302.910156 317.839844 " fill-opacity="1" fill-rule="nonzero"/><path fill="#455a64" d="M 329.664062 325 C 329.664062 325.113281 312.839844 325.195312 292.085938 325.195312 C 271.335938 325.195312 254.511719 325.113281 254.511719 325 C 254.511719 324.886719 271.335938 324.804688 292.085938 324.804688 C 312.839844 324.804688 329.664062 324.894531 329.664062 325 Z M 329.664062 325 " fill-opacity="1" fill-rule="nonzero"/><path fill="#fafafa" d="M 206.191406 332.164062 C 206.191406 332.269531 202.261719 332.359375 197.414062 332.359375 C 192.570312 332.359375 188.640625 332.269531 188.640625 332.164062 C 188.640625 332.058594 192.5625 331.96875 197.414062 331.96875 C 202.265625 331.96875 206.191406 332.058594 206.191406 332.164062 Z M 206.191406 332.164062 " fill-opacity="1" fill-rule="nonzero"/><path fill="#5e17eb" d="M 346.859375 332.164062 C 346.859375 332.269531 342.929688 332.359375 338.085938 332.359375 C 333.238281 332.359375 329.308594 332.269531 329.308594 332.164062 C 329.308594 332.058594 333.234375 331.96875 338.085938 331.96875 C 342.9375 331.96875 346.859375 332.058594 346.859375 332.164062 Z M 346.859375 332.164062 " fill-opacity="1" fill-rule="nonzero"/></svg>